<?xml version="1.0" encoding="utf-8"?>
<!-- Generator: Adobe Illustrator 16.0.0, SVG Export Plug-In . SVG Version: 6.00 Build 0)  -->
<!DOCTYPE svg PUBLIC "-//W3C//DTD SVG 1.1//EN" "http://www.w3.org/Graphics/SVG/1.1/DTD/svg11.dtd">
<svg version="1.1" id="Layer_1" xmlns="http://www.w3.org/2000/svg" xmlns:xlink="http://www.w3.org/1999/xlink" x="0px" y="0px"
	 width="612px" height="792px" viewBox="0 0 612 792" enable-background="new 0 0 612 792" xml:space="preserve">
<g id="Squarrow_copy_2">
	<g>
		<g>
			<polygon points="430.288,370.956 430.267,370.956 430.267,579.888 483.006,579.888 483.006,312.639 430.288,312.639 			"/>
			<polygon points="181.742,365.714 181.742,365.699 395.933,365.699 395.933,312.639 128.689,312.639 128.689,365.714 			"/>
			<polygon points="181.768,614.22 181.742,614.22 181.742,400.068 128.689,400.068 128.689,666.956 181.768,666.956 			"/>
			<polygon points="419.261,614.243 419.261,614.22 216.122,614.22 216.122,666.956 483.006,666.956 483.006,614.243 			"/>
		</g>
		<polygon points="26.036,382.892 26.025,382.901 26.057,382.901 71.403,422.067 71.403,400.068 128.5,400.068 128.5,382.901 
			128.5,382.876 128.5,365.714 71.403,365.714 71.403,343.71 26.057,382.876 26.025,382.876 		"/>
		<polygon display="none" points="413.107,210.029 413.098,210.017 413.098,210.048 373.932,255.285 395.933,255.285 
			395.933,312.643 413.098,312.643 413.128,312.643 430.288,312.643 430.288,255.285 452.289,255.285 413.128,210.048 
			413.128,210.017 		"/>
		<polygon points="585.753,597.062 585.764,597.053 585.734,597.053 540.383,557.887 540.383,579.888 483.048,579.888 
			483.048,597.053 483.048,597.078 483.048,614.243 540.383,614.243 540.383,636.244 585.734,597.078 585.764,597.078 		"/>
		<polygon points="198.946,769.76 198.956,769.771 198.956,769.742 238.123,724.39 216.122,724.39 216.122,666.798 198.956,666.798 
			198.928,666.798 181.768,666.797 181.768,724.39 159.763,724.39 198.928,769.742 198.928,769.771 		"/>
	</g>
</g>
<g id="QR" display="none">
	<g display="inline">
		<path fill="#FFFFFF" d="M202.945,386.839c69,0,138,0,207,0c0,69,0,138,0,207c-69,0-138,0-207,0
			C202.945,524.839,202.945,455.839,202.945,386.839z M256.396,460.329c-2.19,0-4.38,0-6.677,0c0,2.403,0,4.54,0,6.677
			c-2.25-0.002-4.499-0.004-6.748-0.006c0-4.399,0-8.799,0-13.232c-2.312,0-4.401,0-6.722,0c0,2.236,0,4.332,0,6.562
			c-2.364,0-4.496,0-6.627,0c0-4.407,0-8.814,0-13.234c-4.559,0-8.872,0-13.284,0c0,2.283,0,4.417,0,6.552c-2.184,0-4.369,0-6.549,0
			c0,2.343,0,4.433,0,6.611c2.288,0,4.418,0,6.549,0c0,6.646,0,13.289,0,20.177c-2.425,0-4.53,0-6.577,0c0,2.296,0,4.343,0,6.631
			c4.456,0,8.787,0,13.274,0c0,2.294,0,4.346,0,6.461c2.268,0,4.366,0,6.58,0c0-4.508,0-8.871,0-13.235c4.416,0,8.832,0,13.355,0
			c0-2.402,0-4.539,0-6.677c2.251,0,4.503,0,6.754,0c0,2.185,0,4.37,0,6.785c2.346,0,4.443,0,6.677,0c0,2.366,0,4.501,0,6.634
			c-2.191,0-4.383,0-6.684,0c0,2.408,0,4.546,0,6.684c-4.414,0-8.828,0-13.346,0c0,4.621,0,8.98,0,13.34c-4.417,0-8.834,0-13.491,0
			c0-2.395,0-4.495,0-6.755c-2.291,0-4.34,0-6.626,0c0-2.263,0-4.368,0-6.442c-2.346,0-4.442,0-6.502,0c0,4.441,0,8.711,0,13.221
			c2.218,0,4.323,0,6.385,0c0,2.349,0,4.449,0,6.709c-2.217,0-4.266,0-6.358,0c0,2.264,0,4.36,0,6.414c4.473,0,8.795,0,13.277,0
			c0-2.226,0-4.273,0-6.557c4.487,0,8.814,0,13.249,0c0-2.38,0-4.52,0-6.657c2.186,0,4.372,0,6.786,0c0,2.404,0,4.502,0,6.684
			c2.365,0,4.496,0,6.627,0c-0.002,2.254-0.004,4.507-0.006,6.761c-6.643,0-13.286,0-20.173,0c0,2.375,0,4.48,0,6.739
			c-6.747,0-13.246,0-19.741,0c0,2.271,0,4.37,0,6.44c8.892,0,17.614,0,26.583,0c0-2.223,0-4.328,0-6.379c2.354,0,4.457,0,6.719,0
			c0,2.225,0,4.274,0,6.342c4.495,0,8.82,0,13.139,0c0-2.208,0-4.255,0-6.545c-2.214,0-4.322,0-6.594,0c0-2.386,0-4.525,0-6.665
			c4.417,0,8.833,0,13.357,0c0-2.411,0-4.549,0-6.688c2.25-0.002,4.499-0.004,6.748-0.007c0,2.191,0,4.384,0,6.685
			c2.409,0,4.546,0,6.684,0c0.029,2.271,0.059,4.541,0.082,6.807c-4.42,0-8.841,0-13.325,0c0,4.462,0,8.781,0,13.218
			c2.277,0,4.413,0,6.55,0c0,2.188,0,4.375,0,6.562c6.802,0,13.334,0,19.826,0c0-2.246,0-4.34,0-6.494c-6.748,0-13.32,0-19.894,0
			c0-2.181,0-4.36,0-6.762c2.381,0,4.473,0,6.777,0c0-2.344,0-4.462,0-6.579c13.312,0,26.625,0,39.896,0c0,2.356,0,4.406,0,6.699
			c-2.221,0-4.327,0-6.45,0c0,8.971,0,17.692,0,26.499c4.432,0,8.756,0,13.06,0c0-2.242,0-4.343,0-6.604c-2.224,0-4.273,0-6.354,0
			c0-4.497,0-8.825,0-13.319c2.287,0,4.43,0,6.569,0c0,2.191,0,4.383,0,6.685c2.408,0,4.546,0,6.684,0c0,2.191,0,4.385,0,6.816
			c2.375,0,4.48,0,6.737,0c0,4.52,0,8.792,0,13.308c2.265,0,4.368,0,6.705,0c0,6.796,0,13.348,0,19.829c2.292,0,4.339,0,6.622,0
			c0-6.686,0-13.236,0-19.949c2.29,0,4.341,0,6.629,0c0-2.264,0-4.368,0-6.464c2.349,0,4.45,0,6.713,0c0,4.432,0,8.704,0,13.219
			c4.488,0,8.817,0,13.148,0c0,2.348,0,4.448,0,6.791c-4.482,0-8.812,0-13.061,0c0,2.293,0,4.339,0,6.37c6.688,0,13.234,0,19.758,0
			c0-6.664,0-13.159,0-19.898c-2.218,0-4.323,0-6.388,0c0-4.574,0-8.899,0-13.39c2.217,0,4.269,0,6.555,0c0-2.265,0-4.371,0-6.64
			c2.384,0,4.522,0,6.661,0c0,2.189,0,4.38,0,6.538c4.598,0,8.915,0,13.215,0c0-6.656,0-13.144,0-19.706c-2.205,0-4.301,0-6.631,0
			c0,4.459,0,8.781,0,13.233c-2.374,0-4.513,0-6.65,0c0-2.183,0-4.366,0-6.777c-2.339,0-4.435,0-6.754,0c0-2.326,0-4.422,0-6.663
			c-2.274,0-4.315,0-6.683,0c0-2.34,0-4.528,0.005-6.715c2.237,0,4.476,0,6.771,0c0-2.378,0-4.502,0-6.625
			c2.222,0.033,4.443,0.066,6.664,0.101c0,2.181,0,4.36,0,6.491c4.669,0,8.933,0,13.25,0c0-6.658,0-13.196,0-19.729
			c-2.236,0-4.329,0-6.654,0c0,4.485,0,8.808,0,13.307c-2.376,0-4.516,0-6.652-0.005c0-2.2,0-4.398,0-6.854
			c-2.276,0-4.408,0-6.542,0c0-2.185,0-4.369,0-6.477c-2.462,0-4.509,0-6.535,0c0,2.239,0,4.339,0,6.405
			c2.312,0,4.456,0,6.594,0.006c-0.02,2.273-0.037,4.547-0.057,6.82c-2.185,0-4.366,0-6.772,0c0,2.373,0,4.494,0,6.615
			c-4.403,0-8.807,0-13.365,0c0-2.328,0-4.375,0-6.498c-4.479,0-8.794,0-13.35,0c0,2.227,0,4.327,0,6.576c-2.376,0-4.514,0-6.649,0
			c0-6.636,0-13.269,0-20.142c2.376,0,4.479,0,6.812,0c0-2.339,0-4.438,0-6.502c2.289,0,4.335,0,6.611,0c0,4.431,0,8.753,0,13.086
			c4.555,0,8.871,0,13.28,0c0-4.511,0-8.867,0-13.225c4.412,0,8.824,0,13.473,0c0-2.354,0-4.453,0-6.707c2.286,0,4.333,0,6.452,0
			c0-2.261,0-4.354,0-6.689c-2.233,0-4.335,0-6.589,0c0-2.286,0-4.333,0-6.459c-2.26,0-4.354,0-6.684,0c0,4.454,0,8.777,0,13.249
			c-2.372,0-4.509,0-6.646,0c0-2.19,0-4.383,0-6.684c-2.408,0-4.546,0-6.684,0c0-2.188,0-4.377,0-6.796c2.4,0,4.5,0,6.827,0
			c0-2.333,0-4.432,0-6.668c4.498,0,8.76,0,13.101,0c0-2.244,0-4.336,0-6.664c-2.229,0-4.327,0-6.575,0c0-2.37,0-4.503,0-6.638
			c6.643,0,13.283,0,20.166,0c0,2.392,0,4.493,0,6.573c2.291,0,4.337,0,6.428,0c0-4.44,0-8.763,0-13.322c-6.696,0-13.246,0-19.955,0
			c0-2.286,0-4.337,0-6.423c-2.266,0-4.362,0-6.571,0c0,4.515,0,8.876,0,13.239c-2.192,0-4.386,0-6.816,0c0-4.659,0-8.988,0-13.264
			c-4.516,0-8.786,0-13.073,0c0,4.452,0,8.774,0,13.261c2.205,0,4.256,0,6.387,0c0,2.269,0,4.369,0,6.492c-4.458,0-8.782,0-13.34,0
			c0-15.6,0-31.047,0-46.468c-2.283,0-4.329,0-6.612,0c0,6.67,0,13.222,0,19.739c-2.347,0-4.448,0-6.709,0c0-4.439,0-8.713,0-13.039
			c-6.714,0-13.26,0-19.919,0c0,4.508,0,8.87,0,13.232c-2.25,0.002-4.499,0.004-6.748,0.007c0-2.191,0-4.384,0-6.684
			c-2.408,0-4.546,0-6.684,0c0-6.645,0-13.286,0-19.906c2.425,0,4.526,0,6.789,0c0,2.215,0,4.266,0,6.365c8.94,0,17.714,0,26.454,0
			c0-8.92,0-17.692,0-26.418c-2.223,0-4.27,0-6.557,0c0,2.229,0,4.333,0,6.369c-4.575,0-8.902,0-13.39,0c0-2.228,0-4.276,0-6.335
			c-2.27,0-4.366,0-6.626,0c0,4.434,0,8.706,0,13.06c-2.271,0-4.371,0-6.715,0c0-2.231,0-4.335,0-6.43c-4.518,0-8.788,0-13.302,0
			c0,2.211,0,4.317,0,6.656c-2.345,0-4.449,0-6.515,0c0,4.519,0,8.788,0,13.303c4.447,0,8.776,0,13.261,0c0,4.607,0,8.973,0,13.338
			c-2.192,0-4.383,0-6.684,0c0,2.407,0,4.546,0,6.684c-2.247,0-4.494,0-6.742,0c0-2.191,0-4.384,0-6.684c-2.408,0-4.546,0-6.684,0
			c0-2.193,0-4.388,0-6.593c-4.55,0-8.822,0-13.164,0c0,6.661,0,13.212,0,19.883c4.509,0,8.875,0,13.24,0c0,2.186,0,4.371,0,6.788
			c2.348,0,4.445,0,6.671,0c0,2.368,0,4.503,0,6.638c-6.699,0-13.398,0-20.097,0c0-2.184,0-4.366,0-6.771c-2.363,0-4.484,0-6.605,0
			c0-2.185,0-4.368,0-6.476c-2.463,0-4.51,0-6.538,0c0,2.239,0,4.339,0,6.405c2.314,0,4.457,0,6.595,0.005
			C256.44,455.771,256.418,458.05,256.396,460.329z M329.839,573.766c0,2.184,0,4.364,0,6.562c2.338,0,4.425,0,6.481,0
			c0-2.238,0-4.326,0-6.494c-2.292,0-4.421,0-6.55,0c0-2.191,0-4.383,0-6.588c-2.317,0-4.362,0-6.483,0c0,2.207,0,4.305,0,6.521
			C325.562,573.766,327.701,573.766,329.839,573.766z M276.42,560.411c0.003,2.252,0.006,4.504,0.009,6.757
			c-4.413,0-8.827,0-13.206,0c0,4.584,0,8.904,0,13.384c2.219,0,4.268,0,6.551,0c0,2.261,0,4.366,0,6.425c2.344,0,4.442,0,6.696,0
			c0-2.223,0-4.27,0-6.554c2.261,0,4.366,0,6.571,0c0-2.38,0-4.518,0-6.655c4.419,0,8.837,0,13.428,0c0,2.461,0,4.601,0,6.739
			c-2.183,0-4.364,0-6.562,0c0,2.338,0,4.425,0,6.481c2.239,0,4.326,0,6.495,0c0-2.292,0-4.421,0-6.549c2.191,0,4.383,0,6.811,0
			c0,2.428,0,4.528,0,6.59c2.289,0,4.334,0,6.617,0c0-2.22,0-4.324,0-6.586c2.379,0,4.516,0,6.653,0c0,2.182,0,4.363,0,6.562
			c2.338,0,4.425,0,6.48,0c0-2.239,0-4.326,0-6.495c-2.292,0-4.421,0-6.549,0c0-4.417,0-8.835,0-13.263c-2.319,0-4.365,0-6.655,0
			c0,2.206,0,4.312,0,6.405c-2.351,0-4.452,0-6.715,0c0-6.658,0-13.157,0-19.729c-4.492,0-8.815,0-13.11,0c0,2.245,0,4.346,0,6.604
			c2.225,0,4.275,0,6.351,0c0,2.271,0,4.372,0,6.639c-4.515,0-8.88,0-13.245,0c0-2.192,0-4.385,0-6.69c-2.412,0-4.551,0-6.69,0
			c0-2.19,0-4.382,0-6.587c-2.318,0-4.363,0-6.483,0c0,2.207,0,4.305,0,6.521C272.145,560.411,274.282,560.411,276.42,560.411z
			 M396.567,480.363c0-2.184,0-4.364,0-6.562c-2.339,0-4.426,0-6.481,0c0,2.239,0,4.326,0,6.494c2.292,0,4.421,0,6.549,0
			c0,4.417,0,8.834,0,13.266c2.317,0,4.362,0,6.484,0c0-4.433,0-8.755,0-13.197C400.844,480.363,398.706,480.363,396.567,480.363z
			 M269.693,413.504c2.192,0,4.384,0,6.587,0c0-6.771,0-13.266,0-19.837c-2.208,0-4.305,0-6.521,0c0,6.729,0,13.317,0,19.905
			c-2.182,0-4.364,0-6.561,0c0,2.338,0,4.425,0,6.48c2.239,0,4.326,0,6.494,0C269.693,417.761,269.693,415.632,269.693,413.504z
			 M209.729,586.994c15.623,0,31.066,0,46.448,0c0-15.604,0-31.046,0-46.447c-15.569,0-30.96,0-46.448,0
			C209.729,556.057,209.729,571.447,209.729,586.994z M209.783,393.63c0,15.604,0,31.045,0,46.448c15.596,0,31.039,0,46.461,0
			c0-15.562,0-30.953,0-46.448C240.741,393.63,225.351,393.63,209.783,393.63z M356.629,440.087c15.636,0,31.078,0,46.448,0
			c0-15.605,0-31.05,0-46.439c-15.573,0-30.965,0-46.448,0C356.629,409.162,356.629,424.552,356.629,440.087z M389.968,573.648
			c4.524,0,8.842,0,13.112,0c0-2.252,0-4.349,0-6.601c-2.227,0-4.273,0-6.555,0c0-2.259,0-4.362,0-6.409c-2.344,0-4.439,0-6.559,0
			C389.968,565.031,389.968,569.244,389.968,573.648z M302.938,546.992c0-4.509,0-8.82,0-13.136c-2.201,0-4.241,0-6.38,0
			c0,4.418,0,8.729,0,13.136C298.718,546.992,300.758,546.992,302.938,546.992z M343.339,400.299c0,4.508,0,8.819,0,13.135
			c2.202,0,4.242,0,6.381,0c0-4.418,0-8.729,0-13.135C347.56,400.299,345.52,400.299,343.339,400.299z M396.762,580.585
			c0,2.287,0,4.377,0,6.384c2.26,0,4.351,0,6.373,0c0-2.223,0-4.26,0-6.384C400.975,580.585,398.938,580.585,396.762,580.585z"/>
		<path d="M343.139,527.104c2.138,0,4.273,0,6.649,0c0-2.248,0-4.35,0-6.575c4.556,0,8.871,0,13.35,0c0,2.123,0,4.17,0,6.498
			c4.56,0,8.962,0,13.368,0.002c0.002,0.002-0.073-0.063-0.073-0.063c0,2.189,0,4.379,0,6.719c2.366,0,4.407,0,6.683,0
			c0,2.241,0,4.336,0,6.663c2.319,0,4.415,0,6.754,0c0,2.411,0,4.596,0,6.777l0.066-0.066c-2.139,0-4.277,0-6.66,0
			c0,2.27,0,4.375,0,6.641c-2.287,0-4.339,0-6.556,0c0,4.489,0,8.814,0,13.39c2.063,0,4.17,0,6.389,0c0,6.739,0,13.234,0,19.898
			c-6.523,0-13.071,0-19.759,0c0-2.031,0-4.077,0-6.37c4.249,0,8.577,0,13.061,0c0-2.343,0-4.443,0-6.791c-4.331,0-8.66,0-13.148,0
			c0-4.515,0-8.787,0-13.219c-2.263,0-4.363,0-6.713,0c0,2.096,0,4.2,0,6.464c-2.288,0-4.339,0-6.629,0c0,6.713,0,13.265,0,19.949
			c-2.283,0-4.33,0-6.622,0c0-6.481,0-13.033,0-19.829c-2.337,0-4.439,0-6.705,0c0-4.516,0-8.788,0-13.308c-2.257,0-4.361,0-6.736,0
			c0-2.433,0-4.625,0-6.816l-0.07,0.063c4.412,0,8.825,0,13.239,0c0-2.398,0-4.497,0-6.834c-2.254,0-4.354,0-6.394,0
			c0-2.287,0-4.331,0-6.609c2.228,0,4.328,0,6.572,0c0-2.378,0-4.516,0-6.652L343.139,527.104z M349.999,533.834
			c0,6.729,0,13.279,0,19.77c6.711,0,13.262,0,19.771,0c0-6.676,0-13.174,0-19.77C363.153,533.834,356.656,533.834,349.999,533.834z
			"/>
		<path d="M369.842,500.322c0,4.356,0,8.714,0,13.225c-4.409,0-8.727,0-13.279,0c0-4.333,0-8.655,0-13.086c-2.277,0-4.323,0-6.612,0
			c0,2.063,0,4.163,0,6.502c-2.332,0-4.436,0-6.812,0c0,6.873,0,13.506,0,20.141l0.064-0.07c-2.188,0-4.375,0-6.797,0
			c0-2.36,0-4.459,0-6.479c-4.559,0-8.875,0-13.3,0c0,6.749,0,13.324,0,19.898l0.063-0.07c-2.141,0-4.282,0-6.569,0
			c0,4.494,0,8.822,0,13.319c2.081,0,4.133,0,6.354,0c0,2.261,0,4.359,0,6.604c-4.304,0-8.628,0-13.059,0c0-8.807,0-17.528,0-26.499
			c2.122,0,4.229,0,6.449,0c0-2.293,0-4.343,0-6.699c-13.271,0-26.583,0-39.897-0.003c-0.002-0.003,0.073,0.062,0.073,0.062
			c-0.029-2.27-0.058-4.54-0.087-6.811l-0.07,0.063c2.194,0,4.389,0,6.677,0c0-4.686,0-9.051,0-13.416c2.248,0,4.495,0,6.742,0
			c0,4.412,0,8.823,0,13.242c4.558,0,8.877,0,13.436,0c0-2.248,0-4.349,0-6.403c2.287,0,4.33,0,6.61,0c0,2.219,0,4.322,0,6.388
			c2.343,0,4.44,0,6.602,0c0-6.746,0-13.326,0-19.906c2.192,0,4.386,0,6.816,0c0,2.447,0,4.551,0,6.595c4.52,0,8.793,0,13.304,0
			c0-8.896,0-17.671,0-26.562c4.604,0,8.966,0,13.329,0l-0.063-0.064c0,2.188,0,4.374,0,6.792c-2.358,0-4.456,0-6.476,0
			c0,2.338,0,4.437,0,6.628c6.75,0,13.321,0,19.895,0l-0.064-0.063c0,2.193,0,4.39,0,6.74c2.46,0,4.602,0,6.742,0L369.842,500.322z"
			/>
		<path d="M316.5,440.29c0-4.362,0-8.726,0-13.232c6.659,0,13.205,0,19.919,0c0,4.326,0,8.6,0,13.039c2.261,0,4.362,0,6.709,0
			c0-6.519,0-13.069,0-19.739c2.283,0,4.329,0,6.612,0c0,15.421,0,30.868,0,46.468c4.558,0,8.882,0,13.34,0c0-2.123,0-4.225,0-6.492
			c-2.131,0-4.181,0-6.387,0c0-4.485,0-8.809,0-13.261c4.288,0,8.559,0,13.073,0c0,4.274,0,8.604,0,13.264c2.432,0,4.624,0,6.816,0
			l-0.066-0.066c0,2.134,0,4.267,0,6.637c2.248,0,4.348,0,6.575,0c0,2.328,0,4.42,0,6.664c-4.341,0-8.603,0-13.101,0
			c0,2.236,0,4.335,0,6.668c-2.327,0-4.426,0-6.827,0c0,2.419,0,4.606,0,6.796l0.07-0.064c-2.187,0-4.37,0-6.785,0
			c0-2.352,0-4.447,0-6.678c-2.368,0-4.501,0-6.634,0l0.063,0.064c0-2.193,0-4.389,0-6.819c-4.645,0-8.973,0-13.455,0
			c0-6.742,0-13.239,0-19.979c-2.262,0-4.368,0-6.704,0c0-6.796,0-13.347,0-19.866c-2.294,0-4.343,0-6.633,0c0,2.214,0,4.32,0,6.536
			c-2.383,0-4.521,0-6.66,0L316.5,440.29z"/>
		<path d="M256.403,487.032c0-2.133,0-4.268,0-6.634c-2.234,0-4.331,0-6.677,0c0-2.415,0-4.602,0-6.785l-0.071,0.063
			c6.638,0,13.275,0,20.149,0c0,4.586,0,8.912,0,13.222c2.29,0,4.337,0,6.478,0c0-6.655,0-13.201,0-19.988
			c-4.444,0-8.771,0-13.208,0c0-2.377,0-4.516,0-6.652l-0.064,0.071c6.699,0,13.397,0,20.097,0l-0.064-0.071
			c0,2.195,0,4.391,0,6.742c2.46,0,4.601,0,6.742,0l-0.064-0.064c0.021,4.475,0.042,8.946,0.062,13.42c-2.193,0-4.387,0-6.677,0
			c0,4.623,0,8.988,0,13.354c-4.403,0-8.806,0-13.441,0c0,2.301,0,4.4,0,6.722c-2.329,0-4.425,0-6.653,0c0,2.367,0,4.5,0,6.634
			l0.064-0.064c-4.42,0-8.841,0-13.419,0c0,2.46,0,4.602,0,6.742l0.064-0.071c-2.131,0-4.263,0-6.627,0c0-2.182,0-4.278,0-6.684
			c-2.414,0-4.6,0-6.786,0l0.067,0.066c0-4.357,0-8.718,0-13.339c4.519,0,8.932,0,13.346,0l-0.064-0.069c0,2.188,0,4.379,0,6.562
			c2.405,0,4.501,0,6.742,0c0-2.291,0-4.426,0-6.562l-0.064,0.063c2.189,0,4.379,0,6.562,0c0-2.405,0-4.501,0-6.742
			c-2.291,0-4.426,0-6.562,0L256.403,487.032z"/>
		<path d="M296.468,433.613c0-4.365,0-8.729,0-13.338c-4.485,0-8.814,0-13.261,0c0-4.515,0-8.784,0-13.303c2.065,0,4.17,0,6.515,0
			c0-2.339,0-4.445,0-6.656c4.515,0,8.785,0,13.302,0c0,2.095,0,4.197,0,6.43c2.345,0,4.445,0,6.715,0c0-4.354,0-8.626,0-13.06
			c2.26,0,4.356,0,6.626,0c0,2.059,0,4.108,0,6.335c4.486,0,8.813,0,13.39,0c0-2.035,0-4.14,0-6.369c2.287,0,4.334,0,6.558,0
			c0,8.726,0,17.5,0,26.418c-8.741,0-17.515,0-26.454,0c0-2.101,0-4.15,0-6.365c-2.264,0-4.363,0-6.79,0c0,6.62,0,13.263,0,19.906
			l0.071-0.064c-2.248,0-4.495,0-6.742,0L296.468,433.613z M323.041,407.015c-2.26,0-4.359,0-6.416,0c0,2.257,0,4.356,0,6.43
			c2.22,0,4.268,0,6.416,0C323.041,411.287,323.041,409.24,323.041,407.015z"/>
		<path d="M209.729,586.994c0-15.547,0-30.938,0-46.447c15.488,0,30.879,0,46.448,0c0,15.401,0,30.845,0,46.447
			C240.796,586.994,225.353,586.994,209.729,586.994z M216.45,547.188c0,11.181,0,22.183,0,33.125c11.161,0,22.163,0,33.126,0
			c0-11.127,0-22.075,0-33.125C238.509,547.188,227.56,547.188,216.45,547.188z"/>
		<path d="M209.783,393.63c15.568,0,30.958,0,46.461,0c0,15.495,0,30.886,0,46.448c-15.423,0-30.866,0-46.461,0
			C209.783,424.675,209.783,409.232,209.783,393.63z M249.595,400.344c-11.179,0-22.181,0-33.125,0c0,11.161,0,22.163,0,33.126
			c11.127,0,22.077,0,33.125,0C249.595,422.402,249.595,411.453,249.595,400.344z"/>
		<path d="M356.629,440.087c0-15.535,0-30.925,0-46.439c15.483,0,30.875,0,46.448,0c0,15.389,0,30.833,0,46.439
			C387.707,440.087,372.265,440.087,356.629,440.087z M396.5,400.345c-11.184,0-22.186,0-33.126,0c0,11.163,0,22.165,0,33.124
			c11.129,0,22.078,0,33.126,0C396.5,422.399,396.5,411.45,396.5,400.345z"/>
		<path d="M283.042,567.168c4.365,0,8.73,0,13.245,0c0-2.267,0-4.367,0-6.639c-2.076,0-4.125,0-6.351,0c0-2.259,0-4.359,0-6.604
			c4.295,0,8.618,0,13.11,0c0,6.57,0,13.069,0,19.729c2.264,0,4.365,0,6.715,0c0-2.092,0-4.199,0-6.405c2.29,0,4.336,0,6.655,0
			c0,4.428,0,8.846,0,13.263l0.067-0.065c-2.139,0-4.274,0-6.653,0c0,2.262,0,4.367,0,6.586c-2.283,0-4.328,0-6.617,0
			c0-2.062,0-4.162,0-6.59c-2.428,0-4.62,0-6.811,0l0.067,0.066c0-2.14,0-4.277,0-6.738c-4.59,0-9.009,0-13.428,0l0.064,0.07
			c0-2.247,0-4.495,0-6.742L283.042,567.168z"/>
		<path d="M249.646,520.364c0,2.14,0,4.278,0,6.665c2.272,0,4.38,0,6.594,0c0,2.29,0,4.337,0,6.545c-4.319,0-8.644,0-13.139,0
			c0-2.066,0-4.117,0-6.342c-2.262,0-4.366,0-6.719,0c0,2.051,0,4.156,0,6.379c-8.968,0-17.691,0-26.583,0c0-2.07,0-4.17,0-6.44
			c6.495,0,12.995,0,19.741,0c0-2.259,0-4.364,0-6.739c6.887,0,13.53,0,20.173,0L249.646,520.364z"/>
		<path d="M236.306,506.987c0,2.139,0,4.277,0,6.656c-4.435,0-8.762,0-13.249,0c0,2.283,0,4.331,0,6.558c-4.482,0-8.804,0-13.277,0
			c0-2.055,0-4.15,0-6.414c2.092,0,4.141,0,6.358,0c0-2.26,0-4.36,0-6.709c-2.062,0-4.167,0-6.385,0c0-4.51,0-8.778,0-13.221
			c2.061,0,4.157,0,6.502,0c0,2.074,0,4.181,0,6.442c2.286,0,4.335,0,6.626,0c0,2.259,0,4.36,0,6.755c4.657,0,9.074,0,13.491-0.001
			C236.373,507.055,236.306,506.987,236.306,506.987z"/>
		<path d="M229.616,480.29c0,4.364,0,8.729,0,13.235c-2.214,0-4.312,0-6.58,0c0-2.115,0-4.167,0-6.461c-4.488,0-8.818,0-13.274,0
			c0-2.288,0-4.336,0-6.631c2.047,0,4.152,0,6.577,0c0-6.888,0-13.531,0-20.177l-0.071,0.064c2.248,0,4.495,0,6.742,0l-0.064-0.064
			c0,6.646,0,13.291,0,20.097c2.46,0,4.601,0,6.742,0L229.616,480.29z"/>
		<path d="M283.042,440.297c2.248,0,4.495,0,6.742,0l-0.064-0.071c0,4.421,0,8.842,0,13.358c2.461,0,4.602,0,6.742,0
			c0,4.471,0,8.942,0,13.413c-2.248-0.021-4.495-0.041-6.742-0.062l0.064,0.064c0-2.195,0-4.39,0-6.742c-2.459,0-4.601,0-6.742,0
			l0.064,0.071c0-2.135,0-4.27,0-6.638c-2.226,0-4.323,0-6.671,0c0-2.417,0-4.604,0-6.788l-0.07,0.063c2.195,0,4.39,0,6.742,0
			c0-2.46,0-4.601,0-6.742L283.042,440.297z"/>
		<path d="M283.042,573.768c0,2.139,0,4.275,0,6.655c-2.205,0-4.31,0-6.571,0c0,2.284,0,4.331,0,6.554c-2.254,0-4.352,0-6.696,0
			c0-2.059,0-4.163,0-6.425c-2.284,0-4.332,0-6.551,0c0-4.479,0-8.8,0-13.384c4.378,0,8.792,0,13.206,0l-0.064-0.071
			c0,2.195,0,4.391,0,6.742c2.46,0,4.601,0,6.742,0L283.042,573.768z"/>
		<path d="M376.584,460.335c0-4.363,0-8.726,0-13.239c2.209,0,4.307,0,6.571,0c0,2.086,0,4.137,0,6.423c6.709,0,13.259,0,19.955,0
			c0,4.561,0,8.882,0,13.322c-2.091,0-4.137,0-6.428,0c0-2.08,0-4.183,0-6.573c-6.883,0-13.523,0-20.166,0L376.584,460.335z"/>
		<path d="M229.623,460.329c2.131,0,4.263,0,6.627,0c0-2.229,0-4.325,0-6.562c2.32,0,4.41,0,6.722,0c0,4.435,0,8.833,0,13.232
			l0.071-0.064c-2.19,0-4.379,0-6.562,0c0,2.404,0,4.501,0,6.742c2.291,0,4.426,0,6.562,0l-0.071-0.063c0,2.138,0,4.273,0,6.677
			c-4.523,0-8.939,0-13.355,0l0.071,0.063c0-6.697,0-13.396,0-20.097L229.623,460.329z"/>
		<path d="M369.849,493.716c2.138,0,4.273,0,6.646,0c0-4.472,0-8.795,0-13.249c2.33,0,4.424,0,6.684,0c0,2.126,0,4.173,0,6.459
			c2.254,0,4.354,0,6.589,0c0,2.335,0,4.431,0,6.689c-2.118,0-4.166,0-6.451,0c0,2.254,0,4.354,0,6.707c-4.648,0-9.062,0-13.474,0
			l0.071,0.063c0-2.247,0-4.494,0-6.741L369.849,493.716z"/>
		<path d="M276.435,446.903c-4.365,0-8.731,0-13.24,0c0-6.671,0-13.222,0-19.882c4.341,0,8.613,0,13.164,0c0,2.204,0,4.397,0,6.592
			l0.07-0.064c-2.189,0-4.379,0-6.562,0c0,2.404,0,4.501,0,6.741c2.291,0,4.426,0,6.562,0l-0.064-0.064c0,2.248,0,4.495,0,6.742
			L276.435,446.903z"/>
		<path d="M389.812,520.513c2.141,0,4.279,0,6.655,0c0-4.499,0-8.82,0-13.307c2.325,0,4.418,0,6.654,0c0,6.531,0,13.069,0,19.729
			c-4.317,0-8.581,0-13.25,0c0-2.131,0-4.312,0.003-6.494C389.878,520.438,389.812,520.513,389.812,520.513z"/>
		<path d="M389.868,547.123c2.139,0,4.276,0,6.651,0c0-4.452,0-8.775,0-13.233c2.329,0,4.425,0,6.631,0c0,6.562,0,13.05,0,19.706
			c-4.301,0-8.618,0-13.215,0c0-2.158,0-4.349,0-6.539L389.868,547.123z"/>
		<path d="M269.76,413.571c0-6.588,0-13.177,0-19.905c2.215,0,4.313,0,6.521,0c0,6.572,0,13.067,0,19.837c-2.204,0-4.396,0-6.587,0
			L269.76,413.571z"/>
		<path d="M269.742,540.379c-2.137,0-4.273,0-6.55,0c0-4.437,0-8.756,0-13.218c4.483,0,8.904,0,13.328,0.002
			c0.002,0.002-0.073-0.063-0.071-0.062c0.003,2.121,0.003,4.239,0.003,6.583c-2.305,0-4.396,0-6.777,0c0,2.4,0,4.581,0,6.762
			L269.742,540.379z"/>
		<path d="M216.338,453.646c0-2.135,0-4.269,0-6.552c4.413,0,8.726,0,13.284,0c0,4.42,0,8.827,0,13.234l0.064-0.071
			c-2.248,0-4.495,0-6.742,0l0.064,0.064c0-2.194,0-4.391,0-6.741c-2.46,0-4.601,0-6.742,0L216.338,453.646z"/>
		<path d="M269.675,540.445c6.573,0,13.146,0,19.894,0c0,2.154,0,4.248,0,6.494c-6.492,0-13.024,0-19.826,0c0-2.187,0-4.373,0-6.562
			L269.675,540.445z"/>
		<path d="M389.968,573.648c0-4.404,0-8.617,0-13.01c2.118,0,4.215,0,6.559,0c0,2.047,0,4.15,0,6.409c2.28,0,4.329,0,6.555,0
			c0,2.252,0,4.349,0,6.601C398.81,573.648,394.492,573.648,389.968,573.648z"/>
		<path d="M249.713,520.432c0.002-2.254,0.004-4.507,0.006-6.761l-0.064,0.071c4.473,0,8.946,0,13.419,0l-0.071-0.064
			c0,2.139,0,4.275,0,6.688c-4.524,0-8.94,0-13.357,0L249.713,520.432z"/>
		<path d="M396.567,480.363c2.139,0,4.275,0,6.552,0c0,4.442,0,8.766,0,13.197c-2.122,0-4.167,0-6.484,0c0-4.432,0-8.849,0-13.266
			L396.567,480.363z"/>
		<path d="M302.938,546.992c-2.181,0-4.221,0-6.38,0c0-4.407,0-8.718,0-13.136c2.139,0,4.179,0,6.38,0
			C302.938,538.172,302.938,542.483,302.938,546.992z"/>
		<path d="M343.339,400.299c2.181,0,4.221,0,6.381,0c0,4.406,0,8.717,0,13.135c-2.139,0-4.179,0-6.381,0
			C343.339,409.118,343.339,404.807,343.339,400.299z"/>
		<path d="M256.465,453.487c-2.142,0-4.284,0-6.599,0c0-2.066,0-4.166,0-6.405c2.027,0,4.074,0,6.538,0c0,2.105,0,4.291-0.002,6.479
			C256.399,453.562,256.465,453.487,256.465,453.487z"/>
		<path d="M309.752,440.297c2.249-0.003,4.498-0.005,6.748-0.007l-0.071-0.064c0,2.189,0,4.38,0,6.742c-2.403,0-4.539,0-6.674,0
			c0.021-2.247,0.04-4.494,0.062-6.742L309.752,440.297z"/>
		<path d="M303.068,433.613c2.138,0,4.276,0,6.684,0c0,2.3,0,4.492,0,6.684l0.064-0.071c-2.189,0-4.379,0-6.678,0
			c0-2.404,0-4.541,0-6.677L303.068,433.613z"/>
		<path d="M329.854,547.064c-2.138,0-4.274,0-6.684,0c0-2.302,0-4.492,0-6.685l-0.063,0.07c2.188,0,4.379,0,6.678,0
			c0,2.406,0,4.542,0,6.678L329.854,547.064z"/>
		<path d="M289.784,440.297c0-2.138,0-4.274,0-6.684c2.301,0,4.492,0,6.684,0l-0.071-0.064c0,2.189,0,4.379,0,6.677
			c-2.406,0-4.542,0-6.678,0L289.784,440.297z"/>
		<path d="M276.358,433.613c2.138,0,4.275,0,6.684,0c0,2.3,0,4.492,0,6.684l0.064-0.071c-2.248,0-4.495,0-6.742,0l0.064,0.064
			c0-2.247,0-4.494,0-6.741L276.358,433.613z"/>
		<path d="M276.419,560.411c-2.137,0-4.275,0-6.551,0c0-2.217,0-4.313,0-6.521c2.12,0,4.166,0,6.483,0c0,2.205,0,4.396,0,6.587
			L276.419,560.411z"/>
		<path d="M276.352,560.479c2.139,0,4.278,0,6.69,0c0,2.306,0,4.497,0,6.689l0.064-0.071c-2.248,0-4.495,0-6.742,0l0.064,0.071
			c-0.003-2.253-0.006-4.505-0.009-6.757L276.352,560.479z"/>
		<path d="M396.762,580.585c2.178,0,4.213,0,6.373,0c0,2.124,0,4.161,0,6.384c-2.022,0-4.113,0-6.373,0
			C396.762,584.962,396.762,582.872,396.762,580.585z"/>
		<path d="M269.693,413.504c0,2.128,0,4.257,0,6.549c-2.168,0-4.255,0-6.494,0c0-2.057,0-4.144,0-6.48c2.197,0,4.379,0,6.561,0
			L269.693,413.504z"/>
		<path d="M316.417,580.51c2.128,0,4.257,0,6.549,0c0,2.169,0,4.256,0,6.495c-2.057,0-4.144,0-6.48,0c0-2.197,0-4.38,0-6.562
			L316.417,580.51z"/>
		<path d="M329.839,573.766c-2.138,0-4.274,0-6.552,0c0-2.216,0-4.312,0-6.521c2.121,0,4.166,0,6.484,0c0,2.205,0,4.396,0,6.588
			L329.839,573.766z"/>
		<path d="M329.771,573.833c2.128,0,4.257,0,6.549,0c0,2.168,0,4.256,0,6.494c-2.058,0-4.145,0-6.481,0c0-2.197,0-4.379,0-6.562
			L329.771,573.833z"/>
		<path d="M296.403,580.439c0,2.128,0,4.257,0,6.549c-2.168,0-4.256,0-6.495,0c0-2.058,0-4.145,0-6.481c2.197,0,4.379,0,6.562,0
			L296.403,580.439z"/>
		<path d="M249.719,493.716c0-2.138,0-4.274,0-6.684c2.301,0,4.492,0,6.684,0l-0.07-0.064c0,2.247,0,4.494,0,6.742l0.064-0.063
			c-2.247,0-4.494,0-6.742,0L249.719,493.716z"/>
		<path d="M363.165,487.032c2.138,0,4.275,0,6.684,0c0,2.301,0,4.492,0,6.684l0.064-0.069c-2.248,0-4.495,0-6.742,0l0.064,0.063
			c0-2.248,0-4.495,0-6.742L363.165,487.032z"/>
		<path d="M396.635,480.296c-2.128,0-4.257,0-6.549,0c0-2.168,0-4.255,0-6.494c2.057,0,4.145,0,6.481,0c0,2.197,0,4.379,0,6.562
			L396.635,480.296z"/>
		<path d="M242.971,467c2.25,0.002,4.499,0.004,6.748,0.006l-0.064-0.07c0,2.247,0,4.494,0,6.742l0.071-0.063
			c-2.251,0-4.503,0-6.754,0l0.071,0.063c0-2.248,0-4.495,0-6.742L242.971,467z"/>
		<path d="M269.751,513.671c-2.249,0.003-4.499,0.005-6.748,0.007l0.071,0.064c0-2.248,0-4.495,0-6.742l-0.064,0.064
			c2.189,0,4.379,0,6.677,0c0,2.404,0,4.542,0,6.678L269.751,513.671z"/>
		<path d="M383.336,513.584c-2.142,0-4.284,0-6.598,0c0-2.066,0-4.166,0-6.405c2.026,0,4.074,0,6.536,0c0,2.106,0,4.292-0.002,6.479
			C383.271,513.66,383.336,513.584,383.336,513.584z"/>
		<path d="M276.435,520.354c-2.138,0-4.275,0-6.684,0c0-2.3,0-4.491,0-6.684l-0.064,0.071c2.19,0,4.379,0,6.678,0
			c0,2.405,0,4.541,0,6.677L276.435,520.354z"/>
		<path d="M383.276,520.41c0.019-2.273,0.036-4.547,0.058-6.823c0.002-0.003-0.062,0.073-0.062,0.07
			c2.135-0.003,4.267-0.003,6.544-0.003c0,2.454,0,4.652-0.002,6.854c-0.002,0.003,0.062-0.072,0.062-0.069
			c-2.224-0.03-4.445-0.063-6.667-0.098L383.276,520.41z"/>
		<path d="M249.719,467.006c0-2.137,0-4.272,0-6.677c2.297,0,4.487,0,6.677,0l-0.064-0.071c0,2.189,0,4.379,0,6.678
			c-2.406,0-4.542,0-6.678,0L249.719,467.006z"/>
		<path d="M256.396,460.329c0.021-2.279,0.043-4.558,0.067-6.84c0.002-0.002-0.064,0.073-0.062,0.07
			c2.124-0.003,4.245-0.003,6.608-0.003c0,2.405,0,4.59,0,6.771l0.064-0.071c-2.248,0-4.495,0-6.742,0L256.396,460.329z"/>
		<path d="M383.209,520.343c0,2.123,0,4.247,0,6.625c-2.297,0-4.534,0-6.773-0.002c-0.003-0.002,0.072,0.063,0.07,0.062
			c-0.003-2.123-0.003-4.244-0.003-6.617c2.406,0,4.589,0,6.773,0L383.209,520.343z"/>
		<path d="M216.338,460.258c-2.131,0-4.262,0-6.549,0c0-2.18,0-4.27,0-6.611c2.181,0,4.365,0,6.549,0l-0.071-0.064
			c0,2.247,0,4.494,0,6.741L216.338,460.258z"/>
		<path fill="#FFFFFF" d="M329.784,547.129c0-2.136,0-4.271,0-6.678c-2.299,0-4.488,0-6.678,0c0-6.574,0-13.149,0-19.898
			c4.425,0,8.741,0,13.3,0c0,2.021,0,4.119,0,6.479c2.422,0,4.608,0,6.797,0c0,2.138,0,4.273,0,6.651c-2.244,0-4.346,0-6.572,0
			c0,2.279,0,4.323,0,6.61c2.038,0,4.139,0,6.394,0c0,2.337,0,4.435,0,6.834C338.609,547.129,334.196,547.129,329.784,547.129z"/>
		<path fill="#FFFFFF" d="M349.999,533.834c6.657,0,13.154,0,19.771,0c0,6.596,0,13.094,0,19.77c-6.509,0-13.06,0-19.771,0
			C349.999,547.113,349.999,540.562,349.999,533.834z M356.639,546.938c2.251,0,4.339,0,6.387,0c0-2.245,0-4.334,0-6.396
			c-2.21,0-4.247,0-6.387,0C356.639,542.688,356.639,544.724,356.639,546.938z"/>
		<path fill="#FFFFFF" d="M309.755,446.968c2.135,0,4.271,0,6.674,0c0-2.362,0-4.553,0-6.742c2.141,0,4.277,0,6.66,0
			c0-2.216,0-4.322,0-6.536c2.29,0,4.339,0,6.633,0c0,6.521,0,13.07,0,19.866c2.336,0,4.442,0,6.704,0c0,6.74,0,13.237,0,19.979
			c4.482,0,8.812,0,13.455,0c0,2.432,0,4.626,0,6.818c-4.363,0-8.727,0-13.329,0c0,8.893,0,17.668,0,26.562
			c-4.511,0-8.784,0-13.304,0c0-2.044,0-4.147,0-6.595c-2.432,0-4.624,0-6.816,0l0.061,0.062c-0.022-2.246-0.046-4.493-0.068-6.739
			c2.193,0,4.387,0,6.821,0c0-2.38,0-4.484,0-6.745c2.297,0,4.346,0,6.398,0c0-2.271,0-4.368,0-6.632c-2.213,0-4.264,0-6.553,0
			c0-2.266,0-4.373,0-6.585c-4.609,0-8.975,0-13.339,0c0.029-2.226,0.058-4.45,0.087-6.676c6.627,0,13.255,0,19.847,0
			c0-2.436,0-4.479,0-6.763c-2.219,0-4.321,0-6.656,0c0-2.341,0-4.443,0-6.499c-2.29,0-4.334,0-6.616,0c0,2.221,0,4.324,0,6.659
			c-2.342,0-4.443,0-6.502,0c0,2.383,0,4.522-0.003,6.661c-4.504-0.045-9.006-0.088-13.508-0.13l0.062,0.061
			c0-4.471,0-8.942,0-13.413l-0.062,0.059c4.413,0,8.826,0,13.416,0c0-2.465,0-4.601,0-6.736L309.755,446.968z"/>
		<path fill="#FFFFFF" d="M316.432,500.322c0,6.58,0,13.16,0,19.905c-2.159,0-4.259,0-6.602,0c0-2.063,0-4.168,0-6.387
			c-2.28,0-4.324,0-6.61,0c0,2.055,0,4.155,0,6.403c-4.559,0-8.878,0-13.436,0c0-4.419,0-8.83,0-13.242l-0.062,0.06
			c2.186,0,4.372,0,6.787,0c0-2.419,0-4.516,0-6.54c2.337,0,4.434,0,6.678,0c0,2.219,0,4.262,0,6.362c2.251,0,4.343,0,6.669,0
			c0-2.23,0-4.33,0-6.5c2.367,0,4.502,0,6.635,0L316.432,500.322z"/>
		<path fill="#FFFFFF" d="M276.365,520.419c0-2.136,0-4.271,0-6.677c-2.299,0-4.488,0-6.678,0c0-2.136,0-4.272,0-6.678
			c-2.298,0-4.488,0-6.677,0c0-2.134,0-4.267,0-6.634c2.228,0,4.324,0,6.653,0c0-2.32,0-4.421,0-6.722c4.635,0,9.038,0,13.441,0
			l-0.06-0.062c0,2.246,0,4.491,0,6.737l0.06-0.06c-2.182,0-4.365,0-6.542,0c0,2.406,0,4.494,0,6.736c2.285,0,4.414,0,6.542,0
			l-0.062-0.06c0,4.365,0,8.729,0,13.416C280.753,520.419,278.559,520.419,276.365,520.419z"/>
		<path fill="#FFFFFF" d="M363.235,486.968c0,2.247,0,4.494,0,6.742c-6.572,0-13.145,0-19.895,0c0-2.192,0-4.29,0-6.628
			c2.02,0,4.116,0,6.476,0c0-2.418,0-4.604,0-6.792c2.133,0,4.266,0,6.634,0c0,2.229,0,4.326,0,6.678
			C358.865,486.968,361.05,486.968,363.235,486.968z"/>
		<path fill="#FFFFFF" d="M363.171,493.646c2.247,0,4.494,0,6.742,0c0,2.246,0,4.493,0,6.74c-2.142,0-4.282,0-6.742,0
			C363.171,498.035,363.171,495.84,363.171,493.646z"/>
		<path fill="#FFFFFF" d="M289.784,507.003c-2.247,0-4.494,0-6.742,0l0.062,0.06c0-2.245,0-4.491,0-6.736l-0.06,0.06
			c2.194,0,4.388,0,6.678,0c0,2.397,0,4.537,0,6.679L289.784,507.003z"/>
		<path fill="#FFFFFF" d="M256.333,460.258c2.247,0,4.494,0,6.742,0c0,2.139,0,4.275,0,6.652c4.437,0,8.763,0,13.208,0
			c0,6.787,0,13.333,0,19.988c-2.14,0-4.188,0-6.478,0c0-4.31,0-8.636,0-13.222c-6.875,0-13.512,0-20.149,0c0-2.248,0-4.495,0-6.742
			c2.136,0,4.271,0,6.678,0C256.333,464.637,256.333,462.447,256.333,460.258z"/>
		<path fill="#FFFFFF" d="M283.104,493.71c0-4.366,0-8.731,0-13.354c2.29,0,4.484,0,6.677,0l-0.059-0.062c0,2.182,0,4.364,0,6.542
			c2.406,0,4.494,0,6.737,0c0-2.285,0-4.414,0-6.542l-0.06,0.06c2.249-0.021,4.498-0.041,6.746-0.062c0,4.42,0,8.84,0,13.357
			c-6.918,0-13.51,0-20.101,0L283.104,493.71z"/>
		<path fill="#FFFFFF" d="M263.074,507c0,2.247,0,4.494,0,6.742c-4.473,0-8.946,0-13.419,0c0-2.142,0-4.282,0-6.742
			C254.233,507,258.654,507,263.074,507z"/>
		<path fill="#FFFFFF" d="M289.719,466.936c2.248,0.021,4.495,0.041,6.742,0.062l-0.062-0.06c0,4.472,0,8.942,0,13.415l0.06-0.061
			c-2.246,0-4.492,0-6.737,0l0.059,0.062C289.761,475.882,289.74,471.409,289.719,466.936z"/>
		<path fill="#FFFFFF" d="M256.333,493.71c0-2.248,0-4.495,0-6.742c2.135,0,4.271,0,6.562,0c0,2.241,0,4.337,0,6.742
			C260.711,493.71,258.522,493.71,256.333,493.71z"/>
		<path fill="#FFFFFF" d="M249.655,493.646c2.248,0,4.495,0,6.742,0c0,2.136,0,4.271,0,6.562c-2.241,0-4.336,0-6.742,0
			C249.655,498.024,249.655,495.835,249.655,493.646z"/>
		<path fill="#FFFFFF" d="M283.042,460.258c2.141,0,4.282,0,6.742,0c0,2.354,0,4.547,0,6.742c-2.141,0-4.282,0-6.742,0
			C283.042,464.647,283.042,462.453,283.042,460.258z"/>
		<path fill="#FFFFFF" d="M289.719,440.226c2.136,0,4.271,0,6.678,0c0-2.298,0-4.486,0-6.677c2.247,0,4.494,0,6.742,0
			c0,2.136,0,4.271,0,6.677c2.299,0,4.488,0,6.678,0c-0.021,2.248-0.041,4.495-0.062,6.742l0.06-0.062c-4.414,0-8.827,0-13.416,0
			c0,2.465,0,4.602,0,6.736l0.062-0.059c-2.141,0-4.281,0-6.742,0C289.719,449.066,289.719,444.646,289.719,440.226z"/>
		<path fill="#FFFFFF" d="M323.041,407.015c0,2.227,0,4.272,0,6.43c-2.148,0-4.196,0-6.416,0c0-2.072,0-4.173,0-6.43
			C318.682,407.015,320.781,407.015,323.041,407.015z"/>
		<path fill="#FFFFFF" d="M216.45,547.188c11.109,0,22.059,0,33.126,0c0,11.05,0,21.998,0,33.125c-10.963,0-21.965,0-33.126,0
			C216.45,569.37,216.45,558.368,216.45,547.188z M223.144,553.881c0,6.721,0,13.261,0,19.739c6.7,0,13.241,0,19.738,0
			c0-6.666,0-13.154,0-19.739C236.276,553.881,229.789,553.881,223.144,553.881z"/>
		<path fill="#FFFFFF" d="M249.595,400.344c0,11.109,0,22.06,0,33.126c-11.048,0-21.998,0-33.125,0c0-10.963,0-21.965,0-33.126
			C227.414,400.344,238.416,400.344,249.595,400.344z M223.074,426.726c6.753,0,13.293,0,19.817,0c0-6.656,0-13.145,0-19.717
			c-6.65,0-13.19,0-19.817,0C223.074,413.626,223.074,420.113,223.074,426.726z"/>
		<path fill="#FFFFFF" d="M396.5,400.345c0,11.105,0,22.056,0,33.124c-11.048,0-21.997,0-33.126,0c0-10.959,0-21.961,0-33.124
			C374.314,400.345,385.316,400.345,396.5,400.345z M389.812,406.992c-6.739,0-13.227,0-19.79,0c0,6.651,0,13.191,0,19.751
			c6.673,0,13.213,0,19.79,0C389.812,420.104,389.812,413.617,389.812,406.992z"/>
		<path fill="#FFFFFF" d="M276.365,567.097c2.247,0,4.494,0,6.742,0c0,2.247,0,4.495,0,6.742c-2.141,0-4.281,0-6.742,0
			C276.365,571.486,276.365,569.292,276.365,567.097z"/>
		<path fill="#FFFFFF" d="M222.945,460.258c2.247,0,4.494,0,6.742,0c0,6.699,0,13.398,0,20.098c-2.141,0-4.282,0-6.742,0
			C222.945,473.549,222.945,466.904,222.945,460.258z"/>
		<path fill="#FFFFFF" d="M216.268,460.322c0-2.247,0-4.494,0-6.741c2.141,0,4.282,0,6.742,0c0,2.352,0,4.547,0,6.741
			C220.762,460.322,218.515,460.322,216.268,460.322z"/>
		<path fill="#FFFFFF" d="M276.365,440.226c2.247,0,4.494,0,6.742,0c0,2.143,0,4.282,0,6.742c-2.352,0-4.547,0-6.742,0
			C276.365,444.721,276.365,442.474,276.365,440.226z"/>
		<path fill="#FFFFFF" d="M243.042,466.936c0,2.247,0,4.494,0,6.742c-2.136,0-4.271,0-6.562,0c0-2.24,0-4.338,0-6.742
			C238.663,466.936,240.852,466.936,243.042,466.936z"/>
		<path fill="#FFFFFF" d="M276.429,433.549c0,2.247,0,4.494,0,6.741c-2.135,0-4.271,0-6.562,0c0-2.24,0-4.337,0-6.741
			C272.05,433.549,274.239,433.549,276.429,433.549z"/>
		<path d="M356.639,546.938c0-2.214,0-4.25,0-6.396c2.14,0,4.177,0,6.387,0c0,2.062,0,4.151,0,6.396
			C360.978,546.938,358.89,546.938,356.639,546.938z"/>
		<path d="M283.044,493.647c6.591,0,13.183,0,20.101,0c0-4.519,0-8.938,0-13.357l-0.071,0.063c2.248,0,4.494,0,6.742,0l-0.064-0.063
			c0,4.421,0,8.841,0,13.42c2.46,0,4.602,0,6.741,0l-0.07-0.063c0.022,2.245,0.046,4.492,0.068,6.738c-2.133,0-4.268,0-6.635,0
			c0,2.17,0,4.27,0,6.5c-2.326,0-4.418,0-6.669,0c0-2.102,0-4.145,0-6.361c-2.245,0-4.341,0-6.678,0c0,2.023,0,4.121,0,6.54
			c-2.416,0-4.602,0-6.787,0c0-2.142,0-4.28,0-6.679c-2.29,0-4.484,0-6.678,0C283.044,498.139,283.044,495.894,283.044,493.647z"/>
		<path d="M309.752,473.684c4.364,0,8.729,0,13.339,0c0,2.213,0,4.319,0,6.585c2.289,0,4.34,0,6.553,0c0,2.264,0,4.361,0,6.632
			c-2.054,0-4.103,0-6.398,0c0,2.261,0,4.365,0,6.746c-2.436,0-4.628,0-6.821,0l0.07,0.063c0-4.421,0-8.841,0-13.42
			c-2.46,0-4.602,0-6.741,0l0.064,0.063c0-2.246,0-4.493,0-6.74L309.752,473.684z"/>
		<path d="M309.91,467.068c0-2.141,0-4.28,0-6.663c2.059,0,4.16,0,6.502,0c0-2.335,0-4.438,0-6.659c2.282,0,4.326,0,6.616,0
			c0,2.056,0,4.158,0,6.499c2.335,0,4.438,0,6.656,0c0,2.283,0,4.327,0,6.763c-6.592,0-13.22,0-19.849-0.003
			C309.834,467.003,309.91,467.068,309.91,467.068z"/>
		<path d="M296.399,480.353c0-4.472,0-8.942,0-13.415c4.502,0.043,9.004,0.086,13.508,0.13c0.003,0.002-0.073-0.063-0.07-0.062
			c-0.027,2.229-0.056,4.453-0.085,6.679l0.064-0.069c-2.195,0-4.391,0-6.742,0c0,2.46,0,4.601,0,6.74l0.071-0.063
			C300.896,480.312,298.647,480.332,296.399,480.353z"/>
		<path d="M296.399,453.643c0-2.136,0-4.271,0-6.736c4.589,0,9.002,0,13.416,0c0,2.137,0,4.271,0,6.736
			C305.225,453.643,300.812,453.643,296.399,453.643z"/>
		<path d="M283.104,500.325c0,2.245,0,4.491,0,6.737c-2.128,0-4.257,0-6.542,0c0-2.243,0-4.331,0-6.737
			C278.739,500.325,280.922,500.325,283.104,500.325z"/>
		<path d="M289.722,480.293c2.246,0,4.492,0,6.737,0c0,2.128,0,4.257,0,6.542c-2.243,0-4.332,0-6.737,0
			C289.722,484.657,289.722,482.475,289.722,480.293z"/>
		<path d="M223.144,553.881c6.645,0,13.132,0,19.738,0c0,6.585,0,13.073,0,19.739c-6.497,0-13.038,0-19.738,0
			C223.144,567.142,223.144,560.602,223.144,553.881z"/>
		<path d="M223.074,426.726c0-6.611,0-13.1,0-19.717c6.627,0,13.167,0,19.817,0c0,6.572,0,13.061,0,19.717
			C236.367,426.726,229.827,426.726,223.074,426.726z"/>
		<path d="M389.812,406.992c0,6.625,0,13.11,0,19.751c-6.577,0-13.117,0-19.79,0c0-6.56,0-13.1,0-19.751
			C376.586,406.992,383.072,406.992,389.812,406.992z"/>
		<path fill="#FFFFFF" d="M309.752,480.29c2.141,0,4.281,0,6.741,0c0,4.579,0,8.999,0,13.42c-2.142,0-4.281,0-6.741,0
			C309.752,489.131,309.752,484.711,309.752,480.29z"/>
		<path fill="#FFFFFF" d="M303.074,480.354c0-2.141,0-4.28,0-6.74c2.352,0,4.547,0,6.742,0c0,2.247,0,4.494,0,6.74
			C307.568,480.354,305.322,480.354,303.074,480.354z"/>
	</g>
</g>
<g id="Pathway">
	<polygon points="430.285,223.022 430.285,255.315 430.285,312.673 413.125,312.673 413.095,312.673 395.93,312.673 395.93,255.315 
		288.875,255.315 288.875,223 323.125,223 430,223 	"/>
	<polyline display="none" points="323.21,166.19 323.21,223.548 306.049,223.548 306.018,223.548 288.853,223.548 288.853,166.19 	
		"/>
</g>
<g id="Sub_text_box">
	<rect x="163" y="180.666" width="287.333" height="87.333"/>
</g>
<g id="Sub_text">
	<g>
		<path fill="#FFFFFF" d="M193.751,204.929h4.94c1,0,1.876,0.114,2.63,0.34c0.754,0.226,1.407,0.53,1.96,0.91
			c0.553,0.38,1.013,0.817,1.38,1.31c0.366,0.494,0.656,1,0.87,1.52c0.214,0.52,0.367,1.04,0.46,1.56c0.093,0.52,0.14,1,0.14,1.44
			c0,0.907-0.167,1.784-0.5,2.63c-0.333,0.847-0.827,1.6-1.48,2.26c-0.653,0.66-1.463,1.19-2.43,1.59c-0.967,0.4-2.083,0.6-3.35,0.6
			h-4.62V204.929L193.751,204.929z M195.671,217.289h2.42c0.813,0,1.583-0.11,2.31-0.33c0.727-0.22,1.363-0.55,1.91-0.99
			c0.546-0.44,0.98-0.99,1.3-1.65c0.32-0.66,0.48-1.43,0.48-2.31c0-0.453-0.073-0.983-0.22-1.59c-0.147-0.606-0.423-1.183-0.83-1.73
			s-0.97-1.01-1.69-1.39c-0.72-0.38-1.653-0.57-2.8-0.57h-2.88V217.289L195.671,217.289z"/>
		<path fill="#FFFFFF" d="M207.971,214.349c0-0.693,0.13-1.34,0.39-1.94c0.26-0.6,0.617-1.126,1.07-1.58
			c0.453-0.454,0.987-0.81,1.6-1.07c0.613-0.26,1.273-0.39,1.979-0.39c0.707,0,1.367,0.13,1.98,0.39
			c0.613,0.26,1.146,0.617,1.6,1.07c0.453,0.453,0.81,0.98,1.07,1.58c0.26,0.6,0.39,1.247,0.39,1.94c0,0.694-0.13,1.344-0.39,1.95
			c-0.26,0.607-0.617,1.133-1.07,1.58c-0.454,0.447-0.987,0.8-1.6,1.06c-0.613,0.26-1.273,0.39-1.98,0.39
			c-0.707,0-1.367-0.13-1.979-0.39c-0.613-0.26-1.147-0.613-1.6-1.06c-0.453-0.447-0.81-0.973-1.07-1.58
			C208.101,215.692,207.971,215.042,207.971,214.349z M209.891,214.349c0,0.48,0.073,0.924,0.22,1.33
			c0.146,0.407,0.353,0.753,0.62,1.04c0.267,0.287,0.593,0.514,0.98,0.68c0.386,0.167,0.82,0.25,1.3,0.25
			c0.48,0,0.913-0.083,1.3-0.25c0.386-0.167,0.713-0.393,0.98-0.68c0.266-0.287,0.473-0.633,0.62-1.04
			c0.146-0.406,0.22-0.85,0.22-1.33s-0.074-0.923-0.22-1.33c-0.146-0.407-0.354-0.753-0.62-1.04c-0.267-0.287-0.594-0.513-0.98-0.68
			c-0.387-0.167-0.82-0.25-1.3-0.25c-0.479,0-0.914,0.083-1.3,0.25c-0.387,0.167-0.713,0.394-0.98,0.68
			c-0.267,0.287-0.474,0.633-0.62,1.04C209.964,213.426,209.891,213.869,209.891,214.349z"/>
		<path fill="#FFFFFF" d="M219.171,209.609h2.02l2.129,7.08h0.041l2.271-7.08h1.92l2.4,7.08h0.04l2.02-7.08h1.92l-3.06,9.48h-1.82
			l-2.511-7.08H226.5l-2.289,7.08h-1.92L219.171,209.609z"/>
		<path fill="#FFFFFF" d="M235.491,209.609h1.8v1.46h0.04c0.227-0.506,0.62-0.917,1.18-1.23c0.56-0.313,1.207-0.47,1.94-0.47
			c0.453,0,0.89,0.07,1.31,0.21c0.42,0.14,0.787,0.356,1.1,0.65c0.313,0.293,0.563,0.67,0.75,1.13s0.28,1.003,0.28,1.63v6.1h-1.8
			v-5.6c0-0.44-0.06-0.816-0.18-1.13c-0.12-0.313-0.28-0.566-0.48-0.76c-0.2-0.193-0.43-0.333-0.69-0.42
			c-0.26-0.086-0.53-0.13-0.81-0.13c-0.373,0-0.72,0.06-1.04,0.18c-0.32,0.12-0.6,0.31-0.84,0.57c-0.24,0.26-0.427,0.59-0.56,0.99
			c-0.133,0.4-0.2,0.873-0.2,1.42v4.88h-1.8V209.609L235.491,209.609z"/>
		<path fill="#FFFFFF" d="M246.751,203.969h1.8v15.12h-1.8V203.969z"/>
		<path fill="#FFFFFF" d="M250.951,214.349c0-0.693,0.13-1.34,0.39-1.94c0.26-0.6,0.617-1.126,1.07-1.58s0.987-0.81,1.6-1.07
			c0.613-0.26,1.273-0.39,1.98-0.39s1.367,0.13,1.98,0.39c0.613,0.26,1.146,0.617,1.6,1.07c0.453,0.453,0.81,0.98,1.07,1.58
			c0.26,0.6,0.39,1.247,0.39,1.94c0,0.694-0.13,1.344-0.39,1.95c-0.26,0.607-0.617,1.133-1.07,1.58c-0.454,0.447-0.987,0.8-1.6,1.06
			c-0.613,0.26-1.273,0.39-1.98,0.39s-1.367-0.13-1.98-0.39c-0.613-0.26-1.147-0.613-1.6-1.06c-0.453-0.447-0.81-0.973-1.07-1.58
			C251.081,215.692,250.951,215.042,250.951,214.349z M252.871,214.349c0,0.48,0.073,0.924,0.22,1.33
			c0.146,0.407,0.353,0.753,0.62,1.04c0.267,0.287,0.593,0.514,0.98,0.68c0.386,0.167,0.82,0.25,1.3,0.25
			c0.48,0,0.913-0.083,1.3-0.25c0.386-0.167,0.713-0.393,0.98-0.68c0.266-0.287,0.473-0.633,0.62-1.04
			c0.146-0.406,0.22-0.85,0.22-1.33s-0.074-0.923-0.22-1.33c-0.146-0.407-0.354-0.753-0.62-1.04c-0.267-0.287-0.594-0.513-0.98-0.68
			c-0.387-0.167-0.82-0.25-1.3-0.25c-0.48,0-0.914,0.083-1.3,0.25c-0.387,0.167-0.713,0.394-0.98,0.68
			c-0.267,0.287-0.474,0.633-0.62,1.04C252.944,213.426,252.871,213.869,252.871,214.349z"/>
		<path fill="#FFFFFF" d="M263.331,210.769c0.507-0.467,1.093-0.817,1.76-1.05c0.667-0.233,1.333-0.35,2-0.35
			c0.693,0,1.29,0.087,1.79,0.26s0.91,0.407,1.23,0.7c0.32,0.293,0.556,0.63,0.71,1.01c0.153,0.38,0.23,0.777,0.23,1.19v4.84
			c0,0.333,0.006,0.64,0.02,0.92c0.013,0.28,0.033,0.547,0.06,0.8h-1.6c-0.04-0.48-0.06-0.96-0.06-1.44h-0.04
			c-0.4,0.613-0.874,1.047-1.42,1.3c-0.547,0.253-1.18,0.38-1.9,0.38c-0.44,0-0.86-0.06-1.26-0.18s-0.75-0.3-1.05-0.54
			c-0.3-0.24-0.537-0.537-0.71-0.89c-0.174-0.353-0.26-0.763-0.26-1.229c0-0.613,0.137-1.126,0.41-1.54
			c0.273-0.413,0.646-0.75,1.12-1.01c0.473-0.26,1.026-0.447,1.66-0.56c0.634-0.113,1.31-0.17,2.03-0.17h1.32v-0.4
			c0-0.24-0.047-0.48-0.14-0.72c-0.093-0.24-0.233-0.457-0.42-0.65s-0.42-0.347-0.7-0.46c-0.28-0.113-0.614-0.17-1-0.17
			c-0.347,0-0.65,0.033-0.91,0.1c-0.26,0.067-0.497,0.15-0.71,0.25c-0.213,0.1-0.407,0.217-0.58,0.35
			c-0.173,0.133-0.34,0.26-0.5,0.38L263.331,210.769z M268.411,214.529c-0.427,0-0.863,0.023-1.31,0.07
			c-0.447,0.047-0.854,0.137-1.22,0.27c-0.367,0.134-0.667,0.32-0.9,0.56c-0.233,0.24-0.35,0.547-0.35,0.92
			c0,0.547,0.183,0.94,0.55,1.18c0.367,0.24,0.863,0.36,1.49,0.36c0.493,0,0.913-0.083,1.26-0.25c0.347-0.167,0.626-0.383,0.84-0.65
			c0.213-0.267,0.367-0.563,0.46-0.89c0.093-0.326,0.14-0.65,0.14-0.97v-0.6H268.411z"/>
		<path fill="#FFFFFF" d="M283.17,219.089h-1.8v-1.36h-0.04c-0.347,0.507-0.823,0.9-1.43,1.18c-0.607,0.28-1.23,0.42-1.87,0.42
			c-0.734,0-1.397-0.127-1.99-0.38c-0.593-0.253-1.1-0.606-1.52-1.06c-0.42-0.453-0.743-0.98-0.97-1.58
			c-0.227-0.6-0.34-1.253-0.34-1.96s0.113-1.363,0.34-1.97c0.227-0.606,0.55-1.133,0.97-1.58c0.42-0.446,0.927-0.796,1.52-1.05
			s1.256-0.38,1.99-0.38c0.68,0,1.32,0.144,1.92,0.43c0.6,0.287,1.06,0.677,1.38,1.17h0.04v-7h1.8V219.089L283.17,219.089z
			 M278.25,217.649c0.48,0,0.913-0.083,1.3-0.25c0.386-0.167,0.713-0.393,0.98-0.68c0.266-0.287,0.473-0.633,0.62-1.04
			c0.146-0.406,0.22-0.85,0.22-1.33s-0.074-0.923-0.22-1.33c-0.146-0.407-0.354-0.753-0.62-1.04c-0.267-0.287-0.594-0.513-0.98-0.68
			c-0.387-0.167-0.82-0.25-1.3-0.25s-0.914,0.083-1.3,0.25c-0.387,0.167-0.713,0.394-0.98,0.68c-0.267,0.287-0.474,0.633-0.62,1.04
			c-0.147,0.407-0.22,0.85-0.22,1.33s0.073,0.924,0.22,1.33c0.146,0.407,0.353,0.753,0.62,1.04c0.267,0.287,0.593,0.514,0.98,0.68
			C277.337,217.566,277.771,217.649,278.25,217.649z"/>
		<path fill="#FFFFFF" d="M291.91,204.929h4.98c0.907,0,1.653,0.124,2.24,0.37c0.586,0.247,1.05,0.56,1.39,0.94
			c0.34,0.38,0.576,0.807,0.71,1.28c0.133,0.473,0.2,0.93,0.2,1.37c0,0.454-0.08,0.89-0.24,1.31c-0.16,0.42-0.39,0.8-0.69,1.14
			s-0.667,0.627-1.1,0.86c-0.434,0.233-0.917,0.377-1.45,0.43l4.02,6.46h-2.4l-3.6-6.24h-2.14v6.24h-1.92V204.929L291.91,204.929z
			 M293.831,211.169h2.52c0.374,0,0.743-0.03,1.11-0.09c0.366-0.06,0.693-0.17,0.98-0.33s0.517-0.39,0.69-0.69
			c0.173-0.3,0.26-0.69,0.26-1.17s-0.087-0.87-0.26-1.17c-0.173-0.3-0.403-0.53-0.69-0.69c-0.287-0.16-0.614-0.27-0.98-0.33
			c-0.367-0.06-0.737-0.09-1.11-0.09h-2.52V211.169z"/>
		<path fill="#FFFFFF" d="M305.03,215.009c0,0.414,0.09,0.79,0.27,1.13c0.18,0.34,0.417,0.63,0.71,0.87
			c0.293,0.24,0.633,0.427,1.021,0.56c0.386,0.133,0.786,0.2,1.2,0.2c0.56,0,1.047-0.13,1.459-0.39
			c0.413-0.26,0.794-0.603,1.141-1.03l1.359,1.04c-1,1.293-2.399,1.94-4.199,1.94c-0.747,0-1.424-0.127-2.03-0.38
			c-0.607-0.253-1.12-0.603-1.54-1.05c-0.42-0.447-0.743-0.973-0.97-1.58c-0.227-0.606-0.34-1.263-0.34-1.97s0.124-1.363,0.37-1.97
			c0.247-0.606,0.586-1.133,1.02-1.58c0.433-0.446,0.95-0.796,1.55-1.05c0.601-0.253,1.252-0.38,1.959-0.38
			c0.84,0,1.551,0.147,2.131,0.44s1.058,0.677,1.431,1.15s0.643,1.007,0.81,1.6c0.167,0.593,0.25,1.197,0.25,1.81v0.64H305.03
			L305.03,215.009z M310.71,213.569c-0.013-0.4-0.077-0.767-0.19-1.1c-0.112-0.333-0.282-0.623-0.51-0.87
			c-0.227-0.246-0.51-0.44-0.85-0.58s-0.736-0.21-1.189-0.21c-0.439,0-0.844,0.083-1.21,0.25c-0.367,0.167-0.677,0.383-0.93,0.65
			s-0.45,0.563-0.59,0.89c-0.14,0.327-0.21,0.65-0.21,0.97H310.71z"/>
		<path fill="#FFFFFF" d="M324.29,219.089h-1.8v-1.36h-0.04c-0.347,0.507-0.823,0.9-1.432,1.18c-0.605,0.28-1.229,0.42-1.868,0.42
			c-0.734,0-1.396-0.127-1.99-0.38c-0.594-0.253-1.101-0.606-1.521-1.06c-0.42-0.453-0.743-0.98-0.971-1.58
			c-0.227-0.6-0.34-1.253-0.34-1.96s0.113-1.363,0.34-1.97c0.228-0.606,0.551-1.133,0.971-1.58c0.421-0.446,0.927-0.796,1.521-1.05
			s1.256-0.38,1.99-0.38c0.68,0,1.319,0.144,1.92,0.43c0.6,0.287,1.061,0.677,1.38,1.17h0.04v-7h1.8V219.089L324.29,219.089z
			 M319.37,217.649c0.479,0,0.913-0.083,1.3-0.25s0.713-0.393,0.98-0.68c0.266-0.287,0.473-0.633,0.618-1.04
			c0.146-0.406,0.222-0.85,0.222-1.33s-0.074-0.923-0.222-1.33c-0.146-0.407-0.354-0.753-0.618-1.04
			c-0.269-0.287-0.595-0.513-0.98-0.68c-0.387-0.167-0.82-0.25-1.3-0.25c-0.48,0-0.913,0.083-1.3,0.25
			c-0.388,0.167-0.713,0.394-0.98,0.68c-0.267,0.287-0.473,0.633-0.619,1.04c-0.146,0.407-0.221,0.85-0.221,1.33
			s0.073,0.924,0.221,1.33c0.146,0.407,0.354,0.753,0.619,1.04c0.269,0.287,0.594,0.514,0.98,0.68
			C318.457,217.566,318.891,217.649,319.37,217.649z"/>
		<path fill="#FFFFFF" d="M327.47,204.929h1.921v12.36h6.5v1.8h-8.421V204.929z"/>
		<path fill="#FFFFFF" d="M337.43,210.769c0.507-0.467,1.095-0.817,1.761-1.05c0.667-0.233,1.334-0.35,2-0.35
			c0.692,0,1.291,0.087,1.791,0.26s0.908,0.407,1.229,0.7c0.319,0.293,0.556,0.63,0.71,1.01c0.152,0.38,0.23,0.777,0.23,1.19v4.84
			c0,0.333,0.006,0.64,0.02,0.92c0.014,0.28,0.033,0.547,0.062,0.8h-1.602c-0.04-0.48-0.06-0.96-0.06-1.44h-0.041
			c-0.399,0.613-0.873,1.047-1.42,1.3c-0.548,0.253-1.181,0.38-1.899,0.38c-0.44,0-0.86-0.06-1.261-0.18
			c-0.399-0.12-0.75-0.3-1.049-0.54c-0.302-0.24-0.537-0.537-0.711-0.89c-0.175-0.353-0.261-0.763-0.261-1.229
			c0-0.613,0.138-1.126,0.41-1.54c0.273-0.413,0.646-0.75,1.12-1.01c0.474-0.26,1.026-0.447,1.659-0.56
			c0.634-0.113,1.311-0.17,2.031-0.17h1.318v-0.4c0-0.24-0.047-0.48-0.14-0.72c-0.094-0.24-0.234-0.457-0.42-0.65
			c-0.188-0.193-0.42-0.347-0.7-0.46s-0.614-0.17-1-0.17c-0.347,0-0.65,0.033-0.91,0.1c-0.261,0.067-0.497,0.15-0.71,0.25
			c-0.213,0.1-0.406,0.217-0.58,0.35c-0.174,0.133-0.34,0.26-0.5,0.38L337.43,210.769z M342.51,214.529
			c-0.427,0-0.862,0.023-1.311,0.07c-0.446,0.047-0.854,0.137-1.219,0.27c-0.367,0.134-0.668,0.32-0.9,0.56
			c-0.234,0.24-0.35,0.547-0.35,0.92c0,0.547,0.183,0.94,0.549,1.18c0.367,0.24,0.862,0.36,1.489,0.36
			c0.493,0,0.914-0.083,1.261-0.25c0.348-0.167,0.627-0.383,0.84-0.65c0.214-0.267,0.367-0.563,0.461-0.89
			c0.093-0.326,0.14-0.65,0.14-0.97v-0.6H342.51z"/>
		<path fill="#FFFFFF" d="M352.811,211.989c-0.215-0.267-0.479-0.49-0.791-0.67c-0.312-0.18-0.696-0.27-1.149-0.27
			c-0.426,0-0.797,0.09-1.109,0.27c-0.313,0.18-0.471,0.443-0.471,0.79c0,0.28,0.09,0.507,0.271,0.68s0.394,0.313,0.64,0.42
			s0.51,0.187,0.791,0.24c0.278,0.054,0.52,0.1,0.719,0.14c0.387,0.093,0.75,0.207,1.09,0.34c0.342,0.134,0.635,0.307,0.881,0.521
			c0.246,0.213,0.439,0.474,0.58,0.78c0.142,0.306,0.209,0.68,0.209,1.12c0,0.534-0.112,0.99-0.34,1.37
			c-0.227,0.38-0.52,0.69-0.879,0.93c-0.359,0.24-0.77,0.414-1.229,0.52s-0.925,0.16-1.392,0.16c-0.785,0-1.477-0.12-2.067-0.36
			c-0.595-0.24-1.125-0.68-1.593-1.32l1.361-1.12c0.293,0.293,0.619,0.554,0.979,0.78c0.359,0.227,0.8,0.34,1.318,0.34
			c0.228,0,0.457-0.023,0.691-0.07c0.231-0.047,0.438-0.12,0.619-0.22c0.18-0.1,0.325-0.227,0.438-0.38s0.17-0.33,0.17-0.53
			c0-0.267-0.082-0.486-0.25-0.66c-0.166-0.173-0.365-0.31-0.6-0.41c-0.232-0.1-0.48-0.18-0.74-0.24
			c-0.26-0.06-0.49-0.11-0.689-0.15c-0.387-0.093-0.754-0.2-1.1-0.32c-0.348-0.12-0.654-0.28-0.92-0.48
			c-0.268-0.2-0.48-0.453-0.641-0.76c-0.16-0.307-0.24-0.687-0.24-1.14c0-0.493,0.104-0.923,0.311-1.29s0.48-0.67,0.82-0.91
			c0.34-0.24,0.727-0.42,1.16-0.54c0.433-0.12,0.869-0.18,1.309-0.18c0.642,0,1.254,0.12,1.842,0.36
			c0.587,0.24,1.054,0.64,1.398,1.2L352.811,211.989z"/>
		<path fill="#FFFFFF" d="M358.01,215.009c0,0.414,0.09,0.79,0.271,1.13c0.18,0.34,0.416,0.63,0.711,0.87
			c0.293,0.24,0.633,0.427,1.02,0.56c0.388,0.133,0.787,0.2,1.199,0.2c0.562,0,1.047-0.13,1.461-0.39
			c0.412-0.26,0.793-0.603,1.139-1.03l1.361,1.04c-1,1.293-2.399,1.94-4.201,1.94c-0.746,0-1.422-0.127-2.028-0.38
			c-0.607-0.253-1.119-0.603-1.539-1.05c-0.42-0.447-0.744-0.973-0.972-1.58c-0.227-0.606-0.34-1.263-0.34-1.97
			s0.123-1.363,0.369-1.97c0.248-0.606,0.588-1.133,1.021-1.58c0.432-0.446,0.948-0.796,1.549-1.05c0.6-0.254,1.254-0.38,1.961-0.38
			c0.84,0,1.549,0.147,2.129,0.44s1.057,0.677,1.43,1.15s0.646,1.007,0.812,1.6c0.166,0.593,0.25,1.197,0.25,1.81v0.64H358.01
			L358.01,215.009z M363.689,213.569c-0.015-0.4-0.076-0.767-0.189-1.1s-0.283-0.623-0.51-0.87c-0.229-0.246-0.51-0.44-0.853-0.58
			c-0.34-0.14-0.735-0.21-1.188-0.21c-0.439,0-0.844,0.083-1.209,0.25c-0.367,0.167-0.679,0.383-0.933,0.65
			c-0.252,0.267-0.448,0.563-0.59,0.89c-0.139,0.327-0.209,0.65-0.209,0.97H363.689z"/>
		<path fill="#FFFFFF" d="M367.77,209.609h1.802v1.46h0.039c0.121-0.253,0.28-0.483,0.479-0.69s0.424-0.383,0.67-0.53
			c0.246-0.146,0.517-0.263,0.812-0.35c0.293-0.087,0.586-0.13,0.879-0.13s0.561,0.04,0.801,0.12l-0.08,1.939
			c-0.146-0.04-0.293-0.073-0.438-0.1c-0.148-0.027-0.295-0.04-0.441-0.04c-0.879,0-1.553,0.247-2.02,0.74
			c-0.468,0.494-0.699,1.26-0.699,2.3v4.76h-1.801v-9.48H367.77z"/>
		<path fill="#FFFFFF" d="M380.77,210.769c0.507-0.467,1.095-0.817,1.761-1.05c0.666-0.233,1.334-0.35,2-0.35
			c0.692,0,1.291,0.087,1.791,0.26s0.909,0.407,1.229,0.7c0.32,0.293,0.558,0.63,0.711,1.01c0.152,0.38,0.23,0.777,0.23,1.19v4.84
			c0,0.333,0.006,0.64,0.02,0.92c0.015,0.28,0.033,0.547,0.062,0.8h-1.603c-0.039-0.48-0.059-0.96-0.059-1.44h-0.041
			c-0.4,0.613-0.873,1.047-1.42,1.3c-0.547,0.253-1.181,0.38-1.9,0.38c-0.438,0-0.858-0.06-1.26-0.18s-0.75-0.3-1.049-0.54
			c-0.301-0.24-0.537-0.537-0.711-0.89c-0.174-0.353-0.261-0.763-0.261-1.229c0-0.613,0.138-1.126,0.41-1.54
			c0.273-0.413,0.646-0.75,1.119-1.01c0.476-0.26,1.027-0.447,1.66-0.56c0.633-0.113,1.311-0.17,2.031-0.17h1.319v-0.4
			c0-0.24-0.047-0.48-0.141-0.72c-0.094-0.24-0.234-0.457-0.42-0.65c-0.188-0.193-0.42-0.347-0.701-0.46
			c-0.279-0.113-0.613-0.17-1-0.17c-0.346,0-0.647,0.033-0.91,0.1c-0.26,0.067-0.496,0.15-0.709,0.25
			c-0.213,0.1-0.405,0.217-0.58,0.35c-0.174,0.133-0.34,0.26-0.5,0.38L380.77,210.769z M385.85,214.529
			c-0.428,0-0.862,0.023-1.311,0.07c-0.447,0.047-0.854,0.137-1.219,0.27c-0.367,0.134-0.668,0.32-0.9,0.56
			c-0.234,0.24-0.35,0.547-0.35,0.92c0,0.547,0.182,0.94,0.549,1.18c0.367,0.24,0.863,0.36,1.49,0.36c0.493,0,0.914-0.083,1.26-0.25
			c0.348-0.167,0.627-0.383,0.84-0.65c0.213-0.267,0.367-0.563,0.461-0.89c0.094-0.326,0.141-0.65,0.141-0.97v-0.6H385.85z"/>
		<path fill="#FFFFFF" d="M391.109,209.609h1.801v1.36h0.039c0.348-0.506,0.824-0.9,1.43-1.18c0.607-0.28,1.23-0.42,1.871-0.42
			c0.732,0,1.396,0.127,1.99,0.38c0.592,0.253,1.1,0.607,1.52,1.06s0.742,0.983,0.971,1.59c0.228,0.607,0.341,1.257,0.341,1.95
			c0,0.707-0.113,1.364-0.341,1.97c-0.229,0.607-0.551,1.133-0.971,1.58c-0.42,0.447-0.928,0.797-1.52,1.05
			c-0.594,0.253-1.258,0.38-1.99,0.38c-0.68,0-1.32-0.144-1.92-0.43c-0.6-0.286-1.062-0.677-1.381-1.17h-0.039v7h-1.801V209.609z
			 M396.029,211.049c-0.48,0-0.914,0.083-1.299,0.25c-0.39,0.167-0.716,0.394-0.98,0.68c-0.268,0.287-0.475,0.633-0.621,1.04
			c-0.146,0.407-0.219,0.85-0.219,1.33s0.072,0.924,0.219,1.33c0.146,0.407,0.354,0.753,0.621,1.04
			c0.266,0.287,0.592,0.514,0.98,0.68c0.385,0.167,0.817,0.25,1.299,0.25c0.48,0,0.914-0.083,1.301-0.25s0.713-0.393,0.979-0.68
			c0.269-0.287,0.476-0.633,0.621-1.04c0.146-0.406,0.222-0.85,0.222-1.33s-0.074-0.923-0.222-1.33
			c-0.146-0.407-0.354-0.753-0.621-1.04c-0.266-0.287-0.592-0.513-0.979-0.68S396.51,211.049,396.029,211.049z"/>
		<path fill="#FFFFFF" d="M403.33,209.609h1.799v1.36h0.041c0.346-0.506,0.822-0.9,1.43-1.18c0.605-0.28,1.23-0.42,1.869-0.42
			c0.734,0,1.396,0.127,1.99,0.38s1.1,0.607,1.52,1.06s0.744,0.983,0.972,1.59c0.227,0.607,0.34,1.257,0.34,1.95
			c0,0.707-0.113,1.364-0.34,1.97c-0.228,0.607-0.552,1.133-0.972,1.58c-0.42,0.447-0.926,0.797-1.52,1.05
			c-0.594,0.253-1.256,0.38-1.99,0.38c-0.68,0-1.32-0.144-1.92-0.43c-0.6-0.286-1.061-0.677-1.379-1.17h-0.041v7h-1.799V209.609z
			 M408.25,211.049c-0.48,0-0.914,0.083-1.301,0.25s-0.713,0.394-0.98,0.68c-0.266,0.287-0.473,0.633-0.619,1.04
			c-0.146,0.407-0.221,0.85-0.221,1.33s0.074,0.924,0.221,1.33c0.146,0.407,0.354,0.753,0.619,1.04
			c0.269,0.287,0.594,0.514,0.98,0.68c0.387,0.167,0.82,0.25,1.301,0.25c0.479,0,0.912-0.083,1.299-0.25s0.713-0.393,0.98-0.68
			c0.266-0.287,0.473-0.633,0.619-1.04c0.146-0.406,0.221-0.85,0.221-1.33s-0.074-0.923-0.221-1.33
			c-0.147-0.407-0.354-0.753-0.619-1.04c-0.269-0.287-0.594-0.513-0.98-0.68S408.729,211.049,408.25,211.049z"/>
		<path fill="#FFFFFF" d="M416.969,219.209c-0.358,0-0.67-0.13-0.93-0.39c-0.26-0.26-0.391-0.57-0.391-0.93
			c0-0.36,0.131-0.67,0.391-0.93s0.57-0.39,0.93-0.39c0.36,0,0.67,0.13,0.931,0.39c0.26,0.26,0.391,0.57,0.391,0.93
			s-0.131,0.67-0.391,0.93C417.639,219.079,417.328,219.209,416.969,219.209z"/>
		<path fill="#FFFFFF" d="M199.461,240.129c0.346,0.52,0.79,0.903,1.33,1.15c0.54,0.247,1.097,0.37,1.67,0.37
			c0.32,0,0.646-0.05,0.98-0.15c0.333-0.1,0.636-0.25,0.91-0.45c0.274-0.2,0.497-0.446,0.67-0.74s0.26-0.633,0.26-1.02
			c0-0.547-0.173-0.963-0.521-1.25c-0.347-0.287-0.777-0.527-1.29-0.72c-0.514-0.193-1.073-0.38-1.68-0.56
			c-0.607-0.18-1.167-0.43-1.68-0.75c-0.514-0.32-0.943-0.75-1.29-1.29c-0.347-0.54-0.52-1.27-0.52-2.19
			c0-0.413,0.09-0.853,0.27-1.32c0.18-0.467,0.463-0.893,0.85-1.28c0.386-0.386,0.883-0.71,1.49-0.97
			c0.606-0.26,1.336-0.39,2.19-0.39c0.773,0,1.513,0.107,2.22,0.32c0.707,0.214,1.327,0.647,1.86,1.3l-1.56,1.42
			c-0.24-0.373-0.58-0.673-1.02-0.9s-0.94-0.34-1.5-0.34c-0.533,0-0.977,0.07-1.33,0.21c-0.353,0.14-0.637,0.32-0.85,0.54
			c-0.214,0.22-0.364,0.457-0.45,0.71c-0.087,0.253-0.13,0.487-0.13,0.7c0,0.6,0.173,1.06,0.52,1.38
			c0.346,0.32,0.776,0.58,1.29,0.78c0.513,0.2,1.073,0.38,1.68,0.54s1.167,0.383,1.68,0.67c0.513,0.287,0.943,0.673,1.29,1.16
			c0.347,0.487,0.52,1.157,0.52,2.01c0,0.68-0.13,1.293-0.39,1.84c-0.26,0.547-0.61,1.007-1.05,1.38s-0.96,0.66-1.56,0.86
			c-0.6,0.2-1.24,0.3-1.92,0.3c-0.907,0-1.767-0.16-2.58-0.48c-0.813-0.32-1.46-0.812-1.94-1.479L199.461,240.129z"/>
		<path fill="#FFFFFF" d="M216.481,236.129c-0.333-0.347-0.684-0.61-1.05-0.79c-0.366-0.18-0.803-0.27-1.31-0.27
			c-0.493,0-0.923,0.09-1.29,0.27c-0.367,0.18-0.674,0.427-0.92,0.74c-0.247,0.313-0.433,0.673-0.56,1.08
			c-0.126,0.407-0.19,0.83-0.19,1.27s0.073,0.857,0.22,1.25c0.146,0.394,0.353,0.737,0.62,1.03s0.586,0.523,0.96,0.69
			c0.373,0.167,0.793,0.25,1.26,0.25c0.507,0,0.94-0.09,1.3-0.27c0.36-0.18,0.693-0.443,1-0.79l1.28,1.28
			c-0.467,0.52-1.01,0.894-1.63,1.12c-0.62,0.226-1.277,0.34-1.97,0.34c-0.733,0-1.403-0.12-2.01-0.36
			c-0.607-0.24-1.13-0.577-1.57-1.01s-0.78-0.953-1.02-1.56c-0.24-0.606-0.36-1.277-0.36-2.01s0.12-1.406,0.36-2.02
			c0.24-0.613,0.577-1.14,1.01-1.58s0.953-0.783,1.56-1.03c0.606-0.247,1.283-0.37,2.03-0.37c0.693,0,1.357,0.124,1.99,0.37
			c0.633,0.247,1.183,0.624,1.65,1.13L216.481,236.129z"/>
		<path fill="#FFFFFF" d="M219.381,234.769c0.507-0.467,1.093-0.817,1.76-1.05c0.667-0.233,1.333-0.35,2-0.35
			c0.693,0,1.29,0.087,1.79,0.26s0.91,0.407,1.23,0.7c0.32,0.293,0.556,0.63,0.71,1.01c0.153,0.38,0.23,0.777,0.23,1.19v4.84
			c0,0.333,0.006,0.64,0.02,0.92c0.013,0.28,0.033,0.547,0.06,0.8h-1.6c-0.04-0.48-0.06-0.96-0.06-1.44h-0.04
			c-0.4,0.613-0.874,1.047-1.42,1.3c-0.547,0.253-1.18,0.38-1.9,0.38c-0.44,0-0.86-0.06-1.26-0.18s-0.75-0.3-1.05-0.54
			c-0.3-0.24-0.537-0.537-0.71-0.89c-0.174-0.353-0.26-0.763-0.26-1.229c0-0.613,0.137-1.126,0.41-1.54
			c0.273-0.413,0.646-0.75,1.12-1.01c0.473-0.26,1.026-0.447,1.66-0.56c0.634-0.113,1.31-0.17,2.03-0.17h1.32v-0.4
			c0-0.24-0.047-0.48-0.14-0.72c-0.093-0.24-0.233-0.457-0.42-0.65s-0.42-0.347-0.7-0.46c-0.28-0.113-0.614-0.17-1-0.17
			c-0.347,0-0.65,0.033-0.91,0.1c-0.26,0.067-0.497,0.15-0.71,0.25c-0.213,0.1-0.407,0.217-0.58,0.35
			c-0.173,0.133-0.34,0.26-0.5,0.38L219.381,234.769z M224.461,238.529c-0.427,0-0.863,0.023-1.31,0.07
			c-0.447,0.047-0.854,0.137-1.22,0.27c-0.367,0.134-0.667,0.32-0.9,0.56c-0.233,0.24-0.35,0.547-0.35,0.92
			c0,0.547,0.183,0.94,0.55,1.18c0.367,0.24,0.863,0.36,1.49,0.36c0.493,0,0.913-0.083,1.26-0.25s0.626-0.383,0.84-0.65
			c0.213-0.267,0.367-0.563,0.46-0.89c0.093-0.326,0.14-0.65,0.14-0.97v-0.6H224.461z"/>
		<path fill="#FFFFFF" d="M229.721,233.609h1.8v1.46h0.04c0.227-0.506,0.62-0.917,1.18-1.23c0.56-0.313,1.207-0.47,1.94-0.47
			c0.453,0,0.89,0.07,1.31,0.21c0.42,0.14,0.787,0.356,1.1,0.65c0.313,0.293,0.563,0.67,0.75,1.13s0.28,1.003,0.28,1.63v6.1h-1.8
			v-5.6c0-0.44-0.06-0.816-0.18-1.13c-0.12-0.313-0.28-0.566-0.48-0.76c-0.2-0.193-0.43-0.333-0.69-0.42
			c-0.26-0.086-0.53-0.13-0.81-0.13c-0.373,0-0.72,0.06-1.04,0.18c-0.32,0.12-0.6,0.31-0.84,0.57c-0.24,0.26-0.427,0.59-0.56,0.99
			c-0.133,0.4-0.2,0.873-0.2,1.42v4.88h-1.8V233.609z"/>
		<path fill="#FFFFFF" d="M253.181,236.129c-0.333-0.347-0.684-0.61-1.05-0.79c-0.366-0.18-0.803-0.27-1.31-0.27
			c-0.493,0-0.923,0.09-1.29,0.27c-0.367,0.18-0.674,0.427-0.92,0.74c-0.247,0.313-0.433,0.673-0.56,1.08
			c-0.126,0.407-0.19,0.83-0.19,1.27s0.073,0.857,0.22,1.25c0.146,0.394,0.353,0.737,0.62,1.03c0.267,0.293,0.586,0.523,0.96,0.69
			c0.373,0.167,0.793,0.25,1.26,0.25c0.507,0,0.94-0.09,1.3-0.27c0.36-0.18,0.693-0.443,1-0.79l1.28,1.28
			c-0.467,0.52-1.01,0.894-1.63,1.12c-0.62,0.226-1.277,0.34-1.97,0.34c-0.733,0-1.403-0.12-2.01-0.36
			c-0.607-0.24-1.13-0.577-1.57-1.01s-0.78-0.953-1.02-1.56c-0.24-0.606-0.36-1.277-0.36-2.01s0.12-1.406,0.36-2.02
			c0.24-0.613,0.577-1.14,1.01-1.58s0.953-0.783,1.56-1.03c0.606-0.247,1.283-0.37,2.03-0.37c0.693,0,1.357,0.124,1.99,0.37
			c0.633,0.247,1.183,0.624,1.65,1.13L253.181,236.129z"/>
		<path fill="#FFFFFF" d="M255.581,238.349c0-0.693,0.13-1.34,0.39-1.94c0.26-0.6,0.617-1.126,1.07-1.58s0.987-0.81,1.6-1.07
			c0.613-0.26,1.273-0.39,1.98-0.39s1.367,0.13,1.98,0.39c0.613,0.26,1.146,0.617,1.6,1.07c0.453,0.453,0.81,0.98,1.07,1.58
			c0.26,0.6,0.39,1.247,0.39,1.94c0,0.694-0.13,1.344-0.39,1.95c-0.26,0.607-0.617,1.133-1.07,1.58c-0.454,0.447-0.987,0.8-1.6,1.06
			c-0.613,0.26-1.273,0.39-1.98,0.39s-1.367-0.13-1.98-0.39c-0.613-0.26-1.147-0.613-1.6-1.06c-0.453-0.447-0.81-0.973-1.07-1.58
			C255.711,239.692,255.581,239.042,255.581,238.349z M257.501,238.349c0,0.48,0.073,0.924,0.22,1.33
			c0.146,0.407,0.353,0.753,0.62,1.04c0.267,0.287,0.593,0.514,0.98,0.68c0.386,0.167,0.82,0.25,1.3,0.25s0.913-0.083,1.3-0.25
			c0.386-0.167,0.713-0.393,0.98-0.68c0.266-0.287,0.473-0.633,0.62-1.04c0.146-0.406,0.22-0.85,0.22-1.33s-0.074-0.923-0.22-1.33
			c-0.146-0.407-0.354-0.753-0.62-1.04c-0.267-0.287-0.594-0.513-0.98-0.68c-0.387-0.167-0.82-0.25-1.3-0.25s-0.914,0.083-1.3,0.25
			c-0.387,0.167-0.713,0.394-0.98,0.68c-0.267,0.287-0.474,0.633-0.62,1.04C257.574,237.426,257.501,237.869,257.501,238.349z"/>
		<path fill="#FFFFFF" d="M277.421,243.089h-1.8v-1.36h-0.04c-0.347,0.507-0.823,0.9-1.43,1.18c-0.607,0.28-1.23,0.42-1.87,0.42
			c-0.734,0-1.397-0.127-1.99-0.38c-0.593-0.253-1.1-0.606-1.52-1.06c-0.42-0.453-0.743-0.98-0.97-1.58
			c-0.227-0.6-0.34-1.253-0.34-1.96s0.113-1.363,0.34-1.97c0.227-0.606,0.55-1.133,0.97-1.58c0.42-0.446,0.927-0.796,1.52-1.05
			s1.256-0.38,1.99-0.38c0.68,0,1.32,0.144,1.92,0.43c0.6,0.287,1.06,0.677,1.38,1.17h0.04v-7h1.8V243.089L277.421,243.089z
			 M272.501,241.649c0.48,0,0.913-0.083,1.3-0.25c0.386-0.167,0.713-0.393,0.98-0.68c0.266-0.287,0.473-0.633,0.62-1.04
			c0.146-0.406,0.22-0.85,0.22-1.33s-0.074-0.923-0.22-1.33c-0.146-0.407-0.354-0.753-0.62-1.04c-0.267-0.287-0.594-0.513-0.98-0.68
			c-0.387-0.167-0.82-0.25-1.3-0.25s-0.914,0.083-1.3,0.25c-0.387,0.167-0.713,0.394-0.98,0.68c-0.267,0.287-0.474,0.633-0.62,1.04
			c-0.147,0.407-0.22,0.85-0.22,1.33s0.073,0.924,0.22,1.33c0.146,0.407,0.353,0.753,0.62,1.04c0.267,0.287,0.593,0.514,0.98,0.68
			C271.587,241.566,272.021,241.649,272.501,241.649z"/>
		<path fill="#FFFFFF" d="M281.501,239.009c0,0.414,0.09,0.79,0.27,1.13c0.18,0.34,0.417,0.63,0.71,0.87
			c0.293,0.24,0.633,0.427,1.02,0.56c0.386,0.133,0.786,0.2,1.2,0.2c0.56,0,1.047-0.13,1.46-0.39c0.413-0.26,0.793-0.603,1.14-1.03
			l1.36,1.04c-1,1.293-2.4,1.94-4.2,1.94c-0.747,0-1.424-0.127-2.03-0.38c-0.607-0.253-1.12-0.603-1.54-1.05
			c-0.42-0.447-0.743-0.973-0.97-1.58c-0.227-0.606-0.34-1.263-0.34-1.97s0.124-1.363,0.37-1.97c0.247-0.606,0.586-1.133,1.02-1.58
			c0.433-0.446,0.95-0.796,1.55-1.05c0.6-0.253,1.253-0.38,1.96-0.38c0.84,0,1.55,0.147,2.13,0.44s1.057,0.677,1.43,1.15
			c0.374,0.473,0.644,1.007,0.81,1.6c0.166,0.593,0.25,1.197,0.25,1.81v0.64H281.501L281.501,239.009z M287.181,237.569
			c-0.013-0.4-0.077-0.767-0.19-1.1c-0.113-0.333-0.283-0.623-0.51-0.87c-0.227-0.246-0.51-0.44-0.85-0.58
			c-0.34-0.14-0.737-0.21-1.19-0.21c-0.44,0-0.844,0.083-1.21,0.25c-0.367,0.167-0.677,0.383-0.93,0.65
			c-0.253,0.267-0.45,0.563-0.59,0.89c-0.14,0.327-0.21,0.65-0.21,0.97H287.181z"/>
		<path fill="#FFFFFF" d="M297.521,235.169h-2.04v-1.56h2.04v-2.12c0-1.267,0.243-2.21,0.73-2.83c0.486-0.62,1.323-0.93,2.51-0.93
			c0.2,0,0.41,0.007,0.63,0.02c0.22,0.013,0.457,0.053,0.71,0.12l-0.2,1.6c-0.173-0.066-0.34-0.113-0.5-0.14
			c-0.16-0.027-0.333-0.04-0.52-0.04c-0.333,0-0.6,0.05-0.8,0.15s-0.357,0.243-0.47,0.43c-0.113,0.187-0.187,0.41-0.22,0.67
			c-0.034,0.26-0.05,0.557-0.05,0.89v2.18h2.14v1.56h-2.16v7.92h-1.8V235.169L297.521,235.169z"/>
		<path fill="#FFFFFF" d="M303.021,238.349c0-0.693,0.13-1.34,0.39-1.94c0.26-0.6,0.617-1.126,1.07-1.58s0.987-0.81,1.6-1.07
			c0.613-0.26,1.273-0.39,1.979-0.39c0.707,0,1.367,0.13,1.98,0.39c0.613,0.26,1.146,0.617,1.6,1.07
			c0.454,0.453,0.812,0.98,1.07,1.58c0.26,0.6,0.391,1.247,0.391,1.94c0,0.694-0.131,1.344-0.391,1.95
			c-0.26,0.607-0.617,1.133-1.07,1.58c-0.452,0.447-0.985,0.8-1.6,1.06c-0.613,0.26-1.273,0.39-1.98,0.39
			c-0.706,0-1.366-0.13-1.979-0.39c-0.613-0.26-1.147-0.613-1.6-1.06c-0.453-0.447-0.81-0.973-1.07-1.58
			C303.15,239.692,303.021,239.042,303.021,238.349z M304.94,238.349c0,0.48,0.073,0.924,0.22,1.33
			c0.146,0.407,0.353,0.753,0.62,1.04c0.267,0.287,0.593,0.514,0.98,0.68c0.387,0.167,0.819,0.25,1.3,0.25
			c0.481,0,0.913-0.083,1.302-0.25c0.386-0.167,0.713-0.393,0.979-0.68c0.268-0.287,0.475-0.633,0.62-1.04
			c0.146-0.406,0.22-0.85,0.22-1.33s-0.072-0.923-0.22-1.33c-0.147-0.407-0.354-0.753-0.62-1.04
			c-0.266-0.287-0.594-0.513-0.979-0.68c-0.389-0.167-0.82-0.25-1.302-0.25c-0.48,0-0.913,0.083-1.3,0.25s-0.713,0.394-0.98,0.68
			c-0.267,0.287-0.474,0.633-0.62,1.04C305.014,237.426,304.94,237.869,304.94,238.349z"/>
		<path fill="#FFFFFF" d="M315.36,233.609h1.8v1.46h0.041c0.119-0.253,0.278-0.483,0.479-0.69s0.423-0.383,0.67-0.53
			c0.247-0.146,0.518-0.263,0.811-0.35s0.587-0.13,0.881-0.13c0.293,0,0.56,0.04,0.799,0.12l-0.08,1.939
			c-0.146-0.04-0.293-0.073-0.438-0.1c-0.146-0.027-0.293-0.04-0.439-0.04c-0.881,0-1.554,0.247-2.021,0.74
			c-0.468,0.494-0.7,1.26-0.7,2.3v4.76h-1.8L315.36,233.609L315.36,233.609z"/>
		<path fill="#FFFFFF" d="M328.32,233.609h1.801v1.46h0.039c0.227-0.506,0.62-0.917,1.18-1.23c0.562-0.313,1.207-0.47,1.94-0.47
			c0.453,0,0.89,0.07,1.31,0.21c0.42,0.14,0.787,0.356,1.102,0.65c0.313,0.294,0.562,0.67,0.75,1.13
			c0.187,0.46,0.279,1.003,0.279,1.63v6.1h-1.801v-5.6c0-0.44-0.06-0.816-0.18-1.13c-0.119-0.313-0.279-0.566-0.48-0.76
			c-0.199-0.193-0.43-0.333-0.688-0.42c-0.261-0.086-0.529-0.13-0.812-0.13c-0.373,0-0.719,0.06-1.039,0.18
			c-0.319,0.12-0.6,0.31-0.84,0.57c-0.24,0.26-0.428,0.59-0.561,0.99s-0.199,0.873-0.199,1.42v4.88h-1.801V233.609z"/>
		<path fill="#FFFFFF" d="M340.801,239.009c0,0.414,0.09,0.79,0.271,1.13c0.18,0.34,0.417,0.63,0.711,0.87
			c0.293,0.24,0.633,0.427,1.02,0.56c0.388,0.133,0.786,0.2,1.199,0.2c0.561,0,1.047-0.13,1.461-0.39
			c0.412-0.26,0.793-0.603,1.139-1.03l1.361,1.04c-1,1.293-2.4,1.94-4.2,1.94c-0.747,0-1.424-0.127-2.029-0.38
			c-0.607-0.253-1.12-0.603-1.54-1.05c-0.421-0.447-0.743-0.973-0.971-1.58c-0.227-0.606-0.34-1.263-0.34-1.97
			s0.123-1.363,0.369-1.97c0.247-0.606,0.587-1.133,1.021-1.58c0.434-0.446,0.95-0.796,1.551-1.05c0.6-0.254,1.254-0.38,1.961-0.38
			c0.84,0,1.549,0.147,2.129,0.44s1.057,0.677,1.43,1.15s0.646,1.007,0.812,1.6c0.166,0.593,0.25,1.197,0.25,1.81v0.64H340.801
			L340.801,239.009z M346.48,237.569c-0.015-0.4-0.076-0.767-0.189-1.1s-0.283-0.623-0.51-0.87c-0.228-0.246-0.512-0.44-0.852-0.58
			c-0.341-0.14-0.736-0.21-1.189-0.21c-0.439,0-0.844,0.083-1.209,0.25c-0.367,0.167-0.679,0.383-0.932,0.65s-0.449,0.563-0.59,0.89
			c-0.14,0.327-0.21,0.65-0.21,0.97H346.48z"/>
		<path fill="#FFFFFF" d="M353.16,238.029l-3.359-4.42h2.32l2.299,3.36l2.262-3.36h2.181l-3.24,4.42l3.84,5.06h-2.32l-2.801-3.98
			l-2.799,3.98h-2.221L353.16,238.029z"/>
		<path fill="#FFFFFF" d="M366.021,235.169h-2.58v4.3c0,0.267,0.006,0.53,0.02,0.79c0.014,0.26,0.062,0.494,0.15,0.7
			c0.086,0.207,0.219,0.374,0.397,0.5c0.183,0.127,0.443,0.19,0.791,0.19c0.213,0,0.435-0.02,0.66-0.06s0.434-0.113,0.619-0.22v1.64
			c-0.213,0.12-0.49,0.203-0.83,0.25c-0.34,0.047-0.604,0.07-0.789,0.07c-0.693,0-1.229-0.097-1.611-0.29
			c-0.379-0.193-0.657-0.443-0.84-0.75c-0.18-0.307-0.285-0.65-0.317-1.03c-0.035-0.38-0.052-0.763-0.052-1.15v-4.94h-2.08v-1.56
			h2.08v-2.66h1.802v2.66h2.58V235.169z"/>
		<path fill="#FFFFFF" d="M380.68,236.129c-0.334-0.347-0.684-0.61-1.051-0.79c-0.367-0.18-0.803-0.27-1.309-0.27
			c-0.494,0-0.924,0.09-1.291,0.27c-0.367,0.18-0.674,0.427-0.92,0.74s-0.435,0.673-0.562,1.08c-0.127,0.407-0.188,0.83-0.188,1.27
			s0.073,0.857,0.221,1.25c0.146,0.394,0.354,0.737,0.619,1.03c0.268,0.293,0.586,0.523,0.961,0.69
			c0.373,0.167,0.793,0.25,1.26,0.25c0.506,0,0.939-0.09,1.299-0.27c0.361-0.18,0.693-0.443,1-0.79l1.281,1.28
			c-0.467,0.52-1.01,0.894-1.631,1.12c-0.619,0.227-1.277,0.34-1.969,0.34c-0.734,0-1.404-0.12-2.013-0.36
			c-0.604-0.24-1.129-0.577-1.567-1.01c-0.441-0.433-0.781-0.953-1.021-1.56c-0.24-0.606-0.358-1.277-0.358-2.01
			s0.118-1.406,0.358-2.02c0.24-0.613,0.578-1.14,1.01-1.58c0.435-0.44,0.953-0.783,1.562-1.03c0.606-0.247,1.283-0.37,2.031-0.37
			c0.69,0,1.354,0.124,1.987,0.37c0.636,0.247,1.185,0.624,1.65,1.13L380.68,236.129z"/>
		<path fill="#FFFFFF" d="M383.68,227.969h1.799v15.12h-1.799V227.969z"/>
		<path fill="#FFFFFF" d="M396.738,243.089h-1.799v-1.46h-0.041c-0.228,0.507-0.619,0.917-1.181,1.23
			c-0.561,0.313-1.207,0.47-1.938,0.47c-0.467,0-0.906-0.07-1.32-0.21c-0.414-0.14-0.777-0.356-1.09-0.65
			c-0.314-0.293-0.564-0.67-0.75-1.13c-0.188-0.46-0.279-1.003-0.279-1.63v-6.1h1.799v5.6c0,0.44,0.062,0.817,0.181,1.13
			c0.121,0.313,0.28,0.567,0.479,0.76c0.199,0.194,0.43,0.333,0.689,0.42c0.259,0.087,0.531,0.13,0.811,0.13
			c0.373,0,0.721-0.06,1.041-0.18c0.318-0.12,0.601-0.31,0.84-0.57c0.24-0.26,0.427-0.59,0.56-0.99
			c0.135-0.4,0.201-0.873,0.201-1.42v-4.88h1.799L396.738,243.089L396.738,243.089z"/>
		<path fill="#FFFFFF" d="M400.818,239.009c0,0.414,0.09,0.79,0.271,1.13c0.18,0.34,0.416,0.63,0.709,0.87
			c0.293,0.24,0.633,0.427,1.021,0.56c0.387,0.133,0.787,0.2,1.2,0.2c0.562,0,1.048-0.13,1.46-0.39
			c0.413-0.26,0.793-0.603,1.141-1.03l1.359,1.04c-1,1.293-2.398,1.94-4.199,1.94c-0.746,0-1.424-0.127-2.029-0.38
			c-0.607-0.253-1.121-0.603-1.541-1.05c-0.42-0.447-0.744-0.973-0.971-1.58c-0.228-0.606-0.34-1.263-0.34-1.97
			s0.123-1.363,0.371-1.97c0.245-0.606,0.586-1.133,1.02-1.58c0.434-0.446,0.949-0.796,1.551-1.05
			c0.601-0.253,1.252-0.38,1.959-0.38c0.84,0,1.551,0.147,2.131,0.44s1.058,0.677,1.431,1.15s0.643,1.007,0.811,1.6
			c0.166,0.593,0.25,1.197,0.25,1.81v0.64H400.818L400.818,239.009z M406.5,237.569c-0.014-0.4-0.078-0.767-0.191-1.1
			c-0.112-0.333-0.282-0.623-0.51-0.87c-0.227-0.246-0.51-0.44-0.85-0.58s-0.736-0.21-1.189-0.21c-0.44,0-0.844,0.083-1.211,0.25
			s-0.676,0.383-0.93,0.65s-0.449,0.563-0.59,0.89c-0.142,0.327-0.211,0.65-0.211,0.97H406.5z"/>
		<path fill="#FFFFFF" d="M410.68,241.889c0-0.36,0.129-0.67,0.39-0.93c0.262-0.26,0.569-0.39,0.932-0.39
			c0.359,0,0.67,0.13,0.93,0.39c0.261,0.26,0.39,0.57,0.39,0.93s-0.129,0.67-0.39,0.93c-0.26,0.26-0.569,0.39-0.93,0.39
			c-0.361,0-0.67-0.13-0.932-0.39C410.809,242.559,410.68,242.249,410.68,241.889z M412.92,239.009H411v-10.08h1.92V239.009z"/>
	</g>
</g>
<g id="Black_sub_box_arrow">
	<polygon points="306.003,197.212 306.013,197.223 306.013,197.194 345.18,151.842 323.178,151.842 323.178,94.25 306.013,94.25 
		305.985,94.25 288.825,94.249 288.825,151.842 266.82,151.842 305.985,197.194 305.985,197.223 	"/>
</g>
<g id="White_sub_box_arrow">
	<g>
		<g>
			<defs>
				<rect id="SVGID_1_" x="163" y="180.666" width="287.333" height="87.333"/>
			</defs>
			<clipPath id="SVGID_2_">
				<use xlink:href="#SVGID_1_"  overflow="visible"/>
			</clipPath>
			<polygon clip-path="url(#SVGID_2_)" fill="#FFFFFF" points="306.003,197.212 306.013,197.223 306.013,197.194 345.18,151.842 
				323.178,151.842 323.178,94.25 306.013,94.25 305.985,94.25 288.825,94.249 288.825,151.842 266.82,151.842 305.985,197.194 
				305.985,197.223 			"/>
		</g>
	</g>
</g>
<g id="Title_Box_copy">
	<rect x="117" y="23.826" width="378" height="117"/>
</g>
<g id="Name" display="none">
	<rect x="102" y="95.974" display="inline" fill="none" width="408" height="114.667"/>
	
		<text transform="matrix(1 0 0 1 209.5801 118.6533)" display="inline" fill="#FFFFFF" font-family="'Avenir-Medium'" font-size="30">Gingerman #5</text>
</g>
<g id="Check-in">
	<g>
		<path fill="#FFFFFF" d="M197.102,49.707c-1.2-1.56-2.721-2.76-4.56-3.6c-1.84-0.84-3.741-1.26-5.7-1.26
			c-2.4,0-4.57,0.45-6.51,1.35c-1.94,0.9-3.6,2.13-4.98,3.69s-2.451,3.39-3.21,5.49c-0.76,2.1-1.14,4.35-1.14,6.75
			c0,2.241,0.36,4.36,1.08,6.36c0.72,2,1.76,3.76,3.12,5.28c1.359,1.521,3.02,2.721,4.98,3.6c1.959,0.88,4.179,1.32,6.66,1.32
			c2.439,0,4.58-0.5,6.42-1.5c1.839-1,3.399-2.4,4.68-4.2l4.86,3.66c-0.321,0.44-0.88,1.07-1.68,1.89
			c-0.801,0.82-1.86,1.641-3.18,2.46c-1.32,0.82-2.91,1.54-4.77,2.16c-1.86,0.62-4.01,0.93-6.45,0.93c-3.36,0-6.39-0.641-9.09-1.92
			c-2.7-1.28-5-2.96-6.9-5.04s-3.351-4.43-4.35-7.05c-1-2.619-1.5-5.27-1.5-7.95c0-3.279,0.54-6.31,1.62-9.09
			c1.08-2.779,2.589-5.18,4.53-7.2c1.939-2.02,4.269-3.59,6.99-4.71c2.72-1.12,5.72-1.68,9-1.68c2.799,0,5.55,0.54,8.25,1.62
			c2.7,1.08,4.91,2.74,6.63,4.98L197.102,49.707z"/>
		<path fill="#FFFFFF" d="M209.761,40.526h5.76v17.64h22.02v-17.64h5.76v42.48h-5.76v-19.44h-22.02v19.44h-5.76V40.526z"/>
		<path fill="#FFFFFF" d="M254.221,40.526h27.42v5.4h-21.66v12.66h20.16v5.4h-20.16v13.62h22.74v5.4h-28.5V40.526L254.221,40.526z"
			/>
		<path fill="#FFFFFF" d="M320.461,49.707c-1.2-1.56-2.721-2.76-4.561-3.6c-1.841-0.84-3.74-1.26-5.699-1.26
			c-2.4,0-4.571,0.45-6.51,1.35c-1.94,0.9-3.6,2.13-4.98,3.69s-2.451,3.39-3.21,5.49c-0.76,2.1-1.14,4.35-1.14,6.75
			c0,2.241,0.36,4.36,1.08,6.36s1.76,3.76,3.12,5.28c1.359,1.521,3.02,2.721,4.98,3.6c1.959,0.88,4.18,1.32,6.66,1.32
			c2.438,0,4.58-0.5,6.42-1.5s3.398-2.4,4.68-4.2l4.86,3.66c-0.321,0.44-0.88,1.07-1.682,1.89c-0.801,0.82-1.858,1.641-3.18,2.46
			c-1.32,0.82-2.91,1.54-4.77,2.16c-1.86,0.62-4.012,0.93-6.45,0.93c-3.36,0-6.39-0.641-9.09-1.92c-2.7-1.28-5-2.96-6.9-5.04
			s-3.351-4.43-4.35-7.05c-1-2.619-1.5-5.27-1.5-7.95c0-3.279,0.54-6.31,1.62-9.09c1.08-2.779,2.589-5.18,4.53-7.2
			c1.939-2.02,4.269-3.59,6.99-4.71c2.72-1.12,5.72-1.68,9-1.68c2.799,0,5.55,0.54,8.25,1.62s4.91,2.74,6.63,4.98L320.461,49.707z"
			/>
		<path fill="#FFFFFF" d="M333.121,40.526h5.76v18.36h0.48l18.778-18.36h8.039l-20.52,19.62l21.899,22.86h-8.399l-19.799-21.24
			h-0.48v21.24h-5.76L333.121,40.526L333.121,40.526z"/>
		<path fill="#FFFFFF" d="M383.4,71.006H368.64v-5.04H383.4V71.006z"/>
		<path fill="#FFFFFF" d="M390.961,40.526h5.76v42.48h-5.76V40.526z"/>
		<path fill="#FFFFFF" d="M407.641,40.526h7.56l23.399,34.92h0.121v-34.92h5.76v42.48h-7.319l-23.642-34.92H413.4v34.92h-5.761
			L407.641,40.526L407.641,40.526z"/>
	</g>
</g>
<g id="Extra__x5B__x5D_">
	<g>
		<g>
			<path d="M512.338,249.956h27.187V41.939h-27.187V23.78h52.562v244.338h-52.562V249.956z"/>
		</g>
		<g>
			<path d="M97.807,268.118H45.244V23.78h52.563v18.16H70.619v208.017h27.188V268.118z"/>
		</g>
	</g>
</g>
</svg>
